<svg width="10" height="14" viewBox="0 0 10 14" fill="none" xmlns="http://www.w3.org/2000/svg">
    <path d="M4.89415 14.0005C4.77924 13.9046 4.64406 13.8224 4.54944 13.7094C3.39702 12.3494 2.33585 10.9176 1.45379 9.35898C0.940106 8.45465 0.49063 7.51949 0.213509 6.50554C-0.205551 4.98805 -0.00953925 3.55619 0.855618 2.24765C1.68022 1.00762 2.84278 0.260866 4.31287 0.0553363C5.74916 -0.146768 7.0469 0.223186 8.1689 1.15149C9.1591 1.97019 9.74714 3.03209 9.94653 4.31665C10.102 5.3169 9.91611 6.26576 9.57478 7.19407C9.11855 8.44095 8.4663 9.58164 7.74308 10.6812C7.0469 11.7397 6.27975 12.7468 5.45853 13.7094C5.36052 13.8224 5.22872 13.9046 5.11382 14.0005C5.03947 14.0005 4.9685 14.0005 4.89415 14.0005ZM4.98877 7.62226C6.35072 7.64623 7.493 6.50897 7.51665 5.10109C7.54031 3.69664 6.42507 2.53882 5.02595 2.51484C3.65386 2.49086 2.51158 3.62813 2.49131 5.04286C2.46765 6.44731 3.58289 7.59485 4.98877 7.62226Z" fill="#007AC7"/>
</svg>
