<svg width="49" height="63" viewBox="0 0 49 63" fill="none" xmlns="http://www.w3.org/2000/svg">
    <path d="M14.388 60.6422C21.7219 62.5765 30.9325 64.0293 37.7607 60.642C51.5474 53.8029 54.7606 37.924 34.7608 18.4239C28.4616 9.52246 26.3821 -1.85075 11.7606 1.42386C7.05308 2.47815 2.36059 7.16937 1.35324 10.924C-1.48081 21.4872 5.68552 23.2283 9.1572 32.312C12.4903 41.0331 -1.5474 55.9899 14.388 60.6422Z" fill="#D9EBFE"/>
    <g clip-path="url(#clip0_1693_10)">
        <path d="M9.76105 48.4238C9.37784 48.2464 9.26074 47.9438 9.26074 47.5368C9.27139 35.6819 9.26074 23.8269 9.27139 11.9615C9.27139 11.3041 9.50558 11.0849 10.1975 11.0849C11.2301 11.0849 12.2626 11.0849 13.3484 11.0849C13.3484 10.4797 13.3484 9.89526 13.3484 9.31086C13.3484 8.64298 13.5719 8.42383 14.2532 8.42383C20.4592 8.42383 26.6546 8.42383 32.8606 8.43426C33.1374 8.43426 33.478 8.56993 33.6696 8.75777C36.7779 11.7737 39.8543 14.8105 42.952 17.8264C43.2288 18.0977 43.2714 18.4003 43.2714 18.7447C43.2714 25.361 43.2714 31.9667 43.2714 38.583C43.2714 40.2005 43.2714 41.8076 43.2714 43.4251C43.2714 44.2391 43.0798 44.427 42.2282 44.427C41.2382 44.427 40.2376 44.427 39.1837 44.427C39.1837 44.8548 39.1837 45.2514 39.1837 45.6479C39.1837 46.2741 39.1624 46.9002 39.1944 47.5264C39.2156 47.9334 39.0666 48.2256 38.7047 48.4238C29.0497 48.4238 19.4054 48.4238 9.76105 48.4238ZM41.8769 43.0808C41.8769 35.0766 41.8769 27.1037 41.8769 19.0995C41.6959 19.0995 41.5362 19.0995 41.3766 19.0995C38.7473 19.0995 36.118 19.0995 33.4887 19.0995C32.5519 19.0995 32.3922 18.943 32.3922 18.0455C32.3922 15.4366 32.3922 12.8381 32.3922 10.2292C32.3922 10.0831 32.3922 9.92657 32.3922 9.78047C26.463 9.78047 20.5976 9.78047 14.7322 9.78047C14.7322 20.884 14.7322 31.9772 14.7322 43.0808C23.7805 43.0808 32.8074 43.0808 41.8769 43.0808ZM37.8105 44.4374C37.5976 44.4374 37.4273 44.4374 37.257 44.4374C29.6458 44.4374 22.0347 44.4374 14.4235 44.4374C13.5294 44.4374 13.3484 44.26 13.3484 43.3938C13.3484 33.2503 13.3484 23.1068 13.3484 12.9634C13.3484 12.7964 13.3484 12.6294 13.3484 12.452C12.4223 12.452 11.5388 12.452 10.6552 12.452C10.6552 24.0043 10.6552 35.5358 10.6552 47.0776C19.7141 47.0776 28.7517 47.0776 37.8105 47.0776C37.8105 46.1906 37.8105 45.3453 37.8105 44.4374ZM40.7272 17.7429C38.4066 15.4679 36.0647 13.1721 33.7761 10.9388C33.7761 13.1303 33.7761 15.4262 33.7761 17.7429C36.1392 17.7429 38.4705 17.7429 40.7272 17.7429Z" fill="#007AC7"/>
        <path d="M30.3696 37.0906C32.9776 37.0906 35.575 37.0906 38.183 37.0906C38.3107 37.0906 38.4491 37.0802 38.5768 37.1011C38.9175 37.1428 39.1623 37.4037 39.173 37.7272C39.1836 38.0611 38.9388 38.3429 38.5875 38.4055C38.4704 38.4264 38.3533 38.416 38.2256 38.416C32.9669 38.416 27.7083 38.416 22.4497 38.416C22.322 38.416 22.1836 38.416 22.0559 38.3951C21.7152 38.322 21.5342 38.0924 21.513 37.7585C21.4917 37.4454 21.7471 37.1637 22.0878 37.1115C22.2262 37.0906 22.3752 37.0906 22.5242 37.0906C25.1429 37.0906 27.7509 37.0906 30.3696 37.0906Z" fill="#007AC7"/>
        <path d="M30.3698 29.0969C32.9565 29.0969 35.5539 29.0969 38.1406 29.0969C38.3003 29.0969 38.46 29.0969 38.6196 29.1282C38.9709 29.1804 39.1625 29.3996 39.1732 29.7439C39.1838 30.0779 39.0135 30.3179 38.6622 30.391C38.5132 30.4223 38.3429 30.4327 38.1938 30.4327C32.9565 30.4327 27.7298 30.4327 22.4925 30.4327C22.4712 30.4327 22.4393 30.4327 22.418 30.4327C21.8432 30.4223 21.5238 30.1822 21.5132 29.7648C21.5132 29.3474 21.8325 29.0969 22.4074 29.0969C25.058 29.0969 27.7192 29.0969 30.3698 29.0969Z" fill="#007AC7"/>
        <path d="M30.3377 33.0938C32.9563 33.0938 35.575 33.0938 38.183 33.0938C38.8536 33.0938 39.1623 33.3025 39.173 33.7408C39.1836 34.1895 38.843 34.4295 38.1724 34.4295C32.9563 34.4295 27.7297 34.4295 22.5136 34.4295C22.3539 34.4295 22.1943 34.4295 22.0452 34.3878C21.694 34.3043 21.4704 34.033 21.513 33.7095C21.5556 33.3651 21.7578 33.1355 22.1304 33.1042C22.2794 33.0938 22.4178 33.0938 22.5668 33.0938C25.1642 33.0938 27.7509 33.0938 30.3377 33.0938Z" fill="#007AC7"/>
        <path d="M30.3272 22.4181C27.7405 22.4181 25.1431 22.4181 22.5564 22.4181C22.4074 22.4181 22.2583 22.4285 22.1199 22.4077C21.7793 22.3659 21.5132 22.1155 21.5132 21.792C21.5132 21.458 21.6729 21.218 22.0135 21.1345C22.1519 21.1032 22.3009 21.0928 22.4499 21.0928C27.7086 21.0928 32.9672 21.0928 38.2258 21.0928C38.3748 21.0928 38.5238 21.1032 38.6622 21.1345C39.0029 21.218 39.2158 21.4998 39.1625 21.8337C39.12 22.1676 38.9071 22.3764 38.5664 22.4181C38.4174 22.439 38.279 22.4285 38.13 22.4285C35.5326 22.4181 32.9352 22.4181 30.3272 22.4181Z" fill="#007AC7"/>
        <path d="M30.359 26.4254C27.7403 26.4254 25.1217 26.4254 22.5137 26.4254C21.8537 26.4254 21.5343 26.2167 21.5237 25.7784C21.513 25.3296 21.8537 25.0896 22.5243 25.0896C27.7403 25.0896 32.967 25.0896 38.183 25.0896C38.8643 25.0896 39.1943 25.3087 39.1943 25.7679C39.1943 26.2167 38.875 26.4254 38.183 26.4254C35.5644 26.4254 32.9564 26.4254 30.359 26.4254Z" fill="#007AC7"/>
        <path d="M20.1398 14.4348C20.7892 14.4348 21.4385 14.4243 22.0879 14.4348C22.5988 14.4452 22.8543 14.6748 22.8543 15.1757C22.8649 16.4488 22.8649 17.722 22.8543 18.9952C22.8543 19.5065 22.5988 19.7465 22.0559 19.7465C20.7785 19.757 19.5118 19.757 18.2344 19.7465C17.6808 19.7465 17.4254 19.4961 17.4147 18.9638C17.4041 17.7116 17.4041 16.4697 17.4147 15.2174C17.4147 14.6748 17.6702 14.4348 18.2237 14.4243C18.8624 14.4243 19.5011 14.4348 20.1398 14.4348ZM21.4705 18.4003C21.4705 17.5133 21.4705 16.6576 21.4705 15.7914C20.5656 15.7914 19.6821 15.7914 18.8092 15.7914C18.8092 16.6889 18.8092 17.5446 18.8092 18.4003C19.714 18.4003 20.5869 18.4003 21.4705 18.4003Z" fill="#007AC7"/>
        <path d="M18.756 22.4076C18.5218 22.4076 18.277 22.4285 18.0428 22.4076C17.7022 22.3763 17.436 22.1154 17.436 21.7919C17.436 21.458 17.5957 21.1762 17.947 21.1449C18.5005 21.0927 19.0541 21.0927 19.6076 21.1345C19.9695 21.1658 20.1505 21.4476 20.1292 21.8024C20.1186 22.1259 19.8631 22.3763 19.5118 22.4076C19.2563 22.4285 19.0115 22.4076 18.756 22.4076Z" fill="#007AC7"/>
        <path d="M18.777 33.1042C19.0112 33.1042 19.256 33.0938 19.4902 33.1042C19.8522 33.1356 20.0757 33.3338 20.1183 33.6991C20.1609 34.033 19.9586 34.3461 19.6073 34.3774C19.0538 34.4296 18.5003 34.4191 17.9467 34.3774C17.6061 34.3461 17.3825 34.0121 17.4251 33.6991C17.4783 33.3547 17.6806 33.1251 18.0532 33.1042C18.298 33.0938 18.5428 33.1042 18.777 33.1042Z" fill="#007AC7"/>
        <path d="M18.7775 38.416C18.5433 38.416 18.2985 38.4369 18.0643 38.416C17.6917 38.3847 17.4149 38.0716 17.4256 37.7377C17.4362 37.4037 17.7024 37.122 18.0643 37.1011C18.5433 37.0802 19.0223 37.0802 19.5014 37.1011C19.8739 37.122 20.1188 37.3933 20.1294 37.7377C20.1401 38.0925 19.8846 38.3743 19.5014 38.416C19.2565 38.4369 19.0223 38.416 18.7775 38.416Z" fill="#007AC7"/>
        <path d="M18.7989 26.4046C18.5328 26.4046 18.2667 26.4254 18.0005 26.4046C17.6492 26.3733 17.4576 26.1228 17.4363 25.7993C17.4151 25.4758 17.5854 25.1732 17.9367 25.1523C18.5008 25.1105 19.0757 25.1105 19.6399 25.1523C19.9805 25.1836 20.1508 25.4653 20.1295 25.8097C20.1082 26.1437 19.906 26.3733 19.5547 26.4046C19.2992 26.4254 19.0437 26.4046 18.7989 26.4046Z" fill="#007AC7"/>
        <path d="M18.7988 29.1074C19.033 29.1074 19.2778 29.0865 19.512 29.1074C19.8952 29.1491 20.1401 29.3996 20.1294 29.7439C20.1188 30.0987 19.9272 30.3596 19.5652 30.3805C19.0543 30.4118 18.5327 30.4118 18.0217 30.3805C17.6492 30.3596 17.4682 30.0987 17.4363 29.7439C17.415 29.41 17.6811 29.1387 18.043 29.0969C18.2878 29.0865 18.5433 29.1074 18.7988 29.1074Z" fill="#007AC7"/>
    </g>
    <defs>
        <clipPath id="clip0_1693_10">
            <rect width="34" height="40" fill="white" transform="translate(9.26074 8.42383)"/>
        </clipPath>
    </defs>
</svg>
