<svg width="30" height="42" viewBox="0 0 30 42" fill="none" xmlns="http://www.w3.org/2000/svg">
    <path d="M14.6824 41.615C14.3377 41.3299 13.9322 41.0856 13.6483 40.7496C10.1911 36.7074 7.00754 32.4514 4.36138 27.8187C2.82032 25.1307 1.47189 22.3511 0.640528 19.3373C-0.616654 14.8268 -0.0286178 10.5708 2.56685 6.68135C5.04066 2.99555 8.52833 0.775921 12.9386 0.165015C17.2475 -0.43571 21.1407 0.663921 24.5067 3.42318C27.4773 5.85663 29.2414 9.01298 29.8396 12.8311C30.306 15.8042 29.7483 18.6246 28.7243 21.3838C27.3556 25.09 25.3989 28.4805 23.2292 31.7489C21.1407 34.895 18.8392 37.8885 16.3756 40.7496C16.0816 41.0856 15.6862 41.3299 15.3414 41.615C15.1184 41.615 14.9055 41.615 14.6824 41.615ZM14.9663 22.6566C19.0522 22.7278 22.479 19.3475 22.55 15.1628C22.6209 10.9882 19.2752 7.5468 15.0778 7.47553C10.9616 7.40426 7.53475 10.7846 7.47392 14.9897C7.40295 19.1642 10.7487 22.5751 14.9663 22.6566Z" fill="#007AC7"/>
</svg>
