<svg width="59" height="63" viewBox="0 0 59 63" fill="none" xmlns="http://www.w3.org/2000/svg">
    <path d="M15.011 21.1153C15.0268 9.38797 24.6505 -0.015593 36.6212 -9.96019e-05C48.5131 0.0153938 58.0424 9.49642 58.0109 21.3167C57.9794 32.8736 48.4344 42.0308 36.6212 41.9998C24.7293 41.9843 14.9953 32.7962 15.011 21.1153Z" fill="#F3F3F3"/>
    <path d="M7.9354 16.8006C6.23261 20.3914 8.85503 24.2074 9.02108 30.4769C9.25435 39.284 -7.92797 48.1967 4.79742 57.3322C10.7188 61.3524 18.4254 62.9543 25.5647 62.0796C43.2077 59.9178 40.177 41.0115 37.4139 30.7538C34.3342 19.3204 39.3487 5.94232 20.136 6.30632C12.1521 6.45758 9.63819 13.2097 7.9354 16.8006Z" fill="#F3F3F3"/>
    <g clip-path="url(#clip0_1693_10)">
        <path d="M15.6134 51C15.1381 50.718 15.0041 50.3011 15.0284 49.7616C15.1259 48.0204 14.9675 46.316 14.4435 44.6361C14.3338 44.2682 14.346 43.9004 14.6506 43.6183C14.9431 43.3486 15.2722 43.3241 15.6256 43.4835C17.4049 44.3173 19.2938 44.5012 21.2315 44.3786C24.0467 44.1947 26.7034 43.4099 29.2017 42.1224C32.5166 40.4302 34.759 37.7081 35.9898 34.2257C38.6466 26.8072 37.3304 20.0386 32.346 14.0303C30.2254 11.4676 27.4103 9.97159 24.0833 9.64052C21.9506 9.41981 19.8057 9.49338 17.807 10.364C16.8199 10.7931 15.9181 11.4553 15.0284 12.0929C13.5051 13.1965 12.1889 12.3627 11.677 11.1365C11.5917 10.928 11.5186 10.7073 11.4577 10.4866C11.1408 9.24814 11.0799 7.98516 11.153 6.70992C11.1896 6.01099 11.2505 5.31206 11.3602 4.61313C11.4333 4.1717 11.8477 3.93872 12.2376 3.98777C12.6642 4.04908 12.9445 4.39241 12.9445 4.85837C12.9445 5.00551 12.9323 5.16492 12.9201 5.31206C12.8957 6.37885 12.8348 7.4579 12.8714 8.52469C12.8957 9.13778 13.0298 9.76314 13.2004 10.364C13.371 10.9771 13.6269 11.0384 14.1144 10.6337C15.5646 9.41981 17.1855 8.56147 19.0501 8.19361C25.8016 6.8448 31.6635 9.3585 35.4049 15.2442C37.9397 19.2416 39.2559 23.5946 38.9391 28.3768C38.6588 32.6071 37.4279 36.5064 34.698 39.8171C33.1625 41.681 31.2857 43.0666 29.0921 44.0353C26.3135 45.2614 23.4252 46.083 20.3663 46.0707C19.1963 46.0585 18.0142 45.8255 16.8443 45.6906C16.7346 45.6784 16.6127 45.6538 16.4909 45.6293C16.564 46.4631 16.6615 47.2601 16.698 48.0694C16.7346 48.658 16.6858 49.2588 16.698 49.8597C16.7102 50.3624 16.5396 50.7548 16.0643 50.9755C15.9181 51 15.7596 51 15.6134 51Z" fill="#777777"/>
        <path d="M7.48495 51C6.89998 50.5341 6.83904 50.3502 7.05841 49.639C7.54588 48.0694 7.27777 46.6593 6.16876 45.4209C5.206 44.3541 4.32855 43.226 3.68264 41.9262C2.22022 38.9466 3.32922 35.832 4.99882 34.0663C6.35157 32.6317 8.09429 32.3496 9.95888 32.6071C11.4579 32.8156 12.8472 33.3429 14.1146 34.1644C15.1383 34.8388 16.162 34.8633 17.2101 34.3115C18.2703 33.7475 18.6847 32.7543 18.6969 31.6017C18.7091 30.1915 18.2338 28.904 17.5757 27.6778C16.6373 25.9121 15.2845 24.4897 13.8221 23.1532C12.3109 21.7798 10.7388 20.4678 9.2886 19.0332C7.36308 17.108 5.85191 14.9009 5.07195 12.2523C4.45042 10.1555 4.40167 8.00969 4.62103 5.83933C4.65759 5.47147 4.69415 5.10361 4.75509 4.74801C4.81602 4.30658 5.14507 4.0123 5.54723 4.00003C5.9494 3.98777 6.32719 4.25754 6.36375 4.71123C6.40031 5.17718 6.35157 5.6554 6.30282 6.12135C5.7666 10.5479 7.05841 14.3614 10.1782 17.4882C11.7382 19.0577 13.4321 20.4678 15.0652 21.9638C16.8323 23.5823 18.4166 25.3481 19.4281 27.5552C20.0131 28.8427 20.4152 30.1793 20.3908 31.6262C20.3665 34.287 18.4653 36.2857 15.833 36.3838C14.9677 36.4206 14.1634 36.1631 13.42 35.6971C12.2988 34.9737 11.0801 34.4955 9.75171 34.2625C7.80181 33.9314 6.31501 34.6549 5.40099 36.4206C4.36511 38.4193 4.54791 40.3444 5.79097 42.1714C6.29063 42.9194 6.86342 43.6184 7.46057 44.2928C8.84988 45.8868 9.2886 47.7016 8.80113 49.7493C8.67926 50.2398 8.49646 50.7058 8.05773 51C7.85055 51 7.66775 51 7.48495 51Z" fill="#777777"/>
        <path d="M25.1679 27.8618C25.1679 26.0102 26.6547 24.5143 28.5071 24.5143C30.3717 24.5143 31.8829 26.0225 31.8707 27.8863C31.8585 29.7256 30.3595 31.2461 28.5315 31.2583C26.6913 31.2706 25.1679 29.7378 25.1679 27.8618ZM28.4949 29.5416C29.4333 29.5539 30.1767 28.8059 30.1767 27.874C30.1767 26.9789 29.4211 26.2064 28.5315 26.2064C27.6053 26.2064 26.8375 26.9666 26.8375 27.8863C26.8497 28.7937 27.5931 29.5294 28.4949 29.5416Z" fill="#777777"/>
        <path d="M24.3148 29.37C24.3148 29.8605 23.9248 30.2528 23.4617 30.2406C22.9621 30.2406 22.5355 29.7256 22.5355 29.1247C22.5355 28.6465 22.9255 28.2664 23.413 28.2664C23.9492 28.2909 24.327 28.7324 24.3148 29.37Z" fill="#777777"/>
        <path d="M31.5904 32.6807C31.5904 33.1712 31.0542 33.6494 30.5058 33.6494C30.0427 33.6494 29.6405 33.257 29.6405 32.7788C29.6405 32.2638 30.1401 31.8101 30.7129 31.8101C31.1638 31.8101 31.5904 32.227 31.5904 32.6807Z" fill="#777777"/>
        <path d="M27.6174 32.227C28.2512 32.2515 28.6655 32.6316 28.6411 33.1589C28.6168 33.6371 28.2268 33.9927 27.7271 33.9805C27.1056 33.9682 26.6791 33.6004 26.6912 33.0731C26.6912 32.5581 27.0812 32.2025 27.6174 32.227Z" fill="#777777"/>
        <path d="M33.9059 25.1887C33.9181 25.6914 33.5525 26.0593 33.0528 26.0593C32.5532 26.0593 32.1022 25.5811 32.0779 25.0415C32.0657 24.5388 32.4191 24.1587 32.9066 24.1464C33.4306 24.1341 33.8937 24.6246 33.9059 25.1887Z" fill="#777777"/>
        <path d="M24.8998 30.8659C25.4116 30.8537 25.9357 31.3687 25.9357 31.8714C25.9357 32.3496 25.5457 32.742 25.0704 32.742C24.5829 32.742 24.0711 32.2393 24.0589 31.7488C24.0589 31.2583 24.4245 30.8782 24.8998 30.8659Z" fill="#777777"/>
        <path d="M32.9188 27.9844C32.9188 27.3713 33.2356 27.0157 33.7596 27.0034C34.2837 27.0034 34.6127 27.3713 34.6249 27.9599C34.6249 28.573 34.2715 28.9899 33.7596 28.9776C33.2478 28.9653 32.9188 28.573 32.9188 27.9844Z" fill="#777777"/>
        <path d="M33.7962 30.7556C33.784 31.2829 33.2722 31.8224 32.7847 31.7979C32.346 31.7856 31.9438 31.3687 31.9438 30.9273C31.9438 30.4245 32.4678 29.8605 32.9431 29.8605C33.4184 29.8727 33.7962 30.2651 33.7962 30.7556Z" fill="#777777"/>
        <path d="M26.0819 23.7785C26.0697 24.2568 25.5335 24.7718 25.0582 24.7595C24.5951 24.7595 24.1808 24.3303 24.1929 23.8766C24.2051 23.3984 24.7414 22.8957 25.2288 22.8957C25.6919 22.8957 26.0941 23.3003 26.0819 23.7785Z" fill="#777777"/>
        <path d="M27.8003 23.4965C27.2762 23.4965 26.8984 23.1286 26.8984 22.6259C26.9106 22.0986 27.325 21.7553 27.9587 21.7553C28.4462 21.7553 28.8362 22.1354 28.8483 22.6014C28.8483 23.1286 28.4218 23.4965 27.8003 23.4965Z" fill="#777777"/>
        <path d="M23.4496 27.2487C22.9621 27.2364 22.5965 26.8563 22.6087 26.3658C22.6209 25.765 23.023 25.3235 23.5471 25.3358C24.0345 25.3481 24.4001 25.7404 24.3879 26.2309C24.3758 26.8318 23.9858 27.2609 23.4496 27.2487Z" fill="#777777"/>
        <path d="M29.8964 23.0428C29.9086 22.5524 30.2986 22.1968 30.7982 22.2213C31.3223 22.2458 31.7854 22.6995 31.761 23.19C31.7366 23.6437 31.3345 24.0238 30.8957 24.0238C30.3351 24.0115 29.8842 23.5701 29.8964 23.0428Z" fill="#777777"/>
    </g>
    <defs>
        <clipPath id="clip0_1693_10">
            <rect width="36" height="47" fill="white" transform="translate(3 4)"/>
        </clipPath>
    </defs>
</svg>
