<svg width="59" height="58" viewBox="0 0 59 58" fill="none" xmlns="http://www.w3.org/2000/svg">
    <path d="M57.999 7.17804C57.999 7.8491 57.999 8.52017 57.999 9.19124C57.9631 9.26314 57.9271 9.33504 57.9151 9.40694C57.3998 12.6904 55.0631 15.3147 51.8276 16.0817C50.797 16.3213 49.7185 16.3094 48.664 16.4532C43.8107 17.1362 40.6591 21.9895 41.9892 26.6989C42.9838 30.222 46.0875 32.5708 49.7544 32.6547C53.3015 32.7386 55.866 34.4042 57.3519 37.6397C57.6635 38.3228 57.7953 39.0897 58.011 39.8087C58.011 40.4798 58.011 41.1509 58.011 41.8219C57.975 41.9058 57.9391 41.9897 57.9151 42.0856C57.0763 47.8256 50.4974 50.8694 45.5722 47.7897C43.0318 46.2079 41.7376 43.8471 41.6657 40.8633C41.6297 38.9819 41.4739 37.1125 41.0305 35.279C39.4008 28.6283 35.674 23.4874 29.862 19.8924C26.6146 17.8792 23.0675 16.7408 19.2568 16.4532C18.1303 16.3693 16.9799 16.4052 15.8775 16.2375C12.1626 15.6503 9.27461 12.4986 9.03495 8.86769C8.78329 4.93714 11.132 1.48594 14.8229 0.359499C15.2783 0.227682 15.7456 0.131815 16.201 0.0239649C16.8721 0.0239649 17.5431 0.023965 18.2142 0.023965C18.2861 0.0599151 18.358 0.0958652 18.4299 0.107849C21.7134 0.623133 24.3377 2.97187 25.1046 6.1954C25.3443 7.22597 25.3323 8.30447 25.4761 9.35901C26.0993 13.9846 30.6649 17.1602 35.2066 16.1656C38.9934 15.3267 41.6057 12.1152 41.6657 8.22059C41.7016 4.37393 44.1582 1.21032 47.8012 0.239667C48.1367 0.155783 48.4722 0.0718998 48.8078 -4.02286e-07C49.4788 -3.72953e-07 50.1499 -3.43619e-07 50.821 -3.14286e-07C50.8929 0.0239664 50.9648 0.0718999 51.0367 0.0838832C54.3561 0.671068 56.549 2.57642 57.6395 5.75202C57.7953 6.21937 57.8792 6.6987 57.999 7.17804Z" fill="#FFDCDD"/>
    <path d="M43 36.8846C42.9842 48.6119 33.3604 58.0155 21.3898 58C9.49786 57.9845 -0.0314267 48.5035 7.56078e-05 36.6832C0.0315779 25.1262 9.57661 15.9691 21.3898 16.0001C33.2817 16.0156 43.0157 25.2037 43 36.8846Z" fill="#FFDCDD"/>
    <path d="M32.1707 50.9998C31.4468 50.4629 31.4976 49.9516 32.3104 49.5553C32.412 49.5041 32.5263 49.3507 32.5263 49.2485C32.539 47.6249 32.539 46.0014 32.539 44.3523C31.485 44.3523 30.4817 44.3523 29.4276 44.3523C29.4276 46.0398 29.4276 47.74 29.4276 49.4402C29.5165 49.4658 29.5927 49.4914 29.6689 49.5169C30.1642 49.6576 30.3801 49.9516 30.3039 50.3607C30.2277 50.7697 29.9102 50.9615 29.4022 50.9231C28.6402 50.8464 27.9925 50.2072 27.9925 49.4274C27.9671 47.1008 27.9417 44.7742 28.0052 42.4475C28.0306 41.2842 28.7164 40.4661 29.7578 39.9675C29.9102 39.8908 30.0753 39.8397 30.2531 39.763C30.2531 37.9732 30.2658 36.1835 30.2404 34.4066C30.2404 34.2404 29.9864 34.0742 29.7832 33.8313C29.4403 34.8412 29.1355 35.7105 28.8434 36.5798C28.2465 38.344 27.6496 40.1081 27.04 41.8595C26.9639 42.064 26.8623 42.3453 26.7099 42.3964C26.4813 42.4859 26.1511 42.4859 25.9225 42.3836C25.605 42.2558 25.5542 41.9234 25.6431 41.6038C25.7574 41.2203 25.8844 40.8496 26.0241 40.4405C24.3477 40.4405 22.7221 40.4405 21.0204 40.4405C21.8332 42.8694 22.6459 45.2855 23.4968 47.8167C23.5984 47.5738 23.6619 47.4332 23.7127 47.2926C23.954 46.5895 24.1826 45.8736 24.4366 45.1705C24.589 44.7614 24.9192 44.6208 25.3129 44.7614C25.7066 44.902 25.8844 45.2216 25.7701 45.6307C25.6304 46.1037 25.4653 46.5639 25.3002 47.0369C24.9573 48.034 24.6144 49.0184 24.2969 50.0155C24.1699 50.4118 24.0175 50.7825 23.5222 50.7953C23.0269 50.7953 22.8745 50.4374 22.7475 50.0411C21.0077 44.8509 19.2551 39.6607 17.5153 34.4833C17.4645 34.3171 17.3883 34.1637 17.3248 33.9847C16.9311 34.0358 16.766 34.2148 16.766 34.6367C16.7787 37.7048 16.7787 40.7601 16.766 43.8282C16.766 44.1478 16.8295 44.3267 17.147 44.4801C18.1502 44.9787 18.6328 46.0781 18.3661 47.1775C18.1121 48.213 17.1343 48.98 16.0675 48.98C14.9753 48.98 14.0228 48.213 13.7561 47.1264C13.5022 46.0781 14.0228 45.0043 14.988 44.4674C15.1404 44.3907 15.3309 44.1989 15.3309 44.0583C15.3563 41.0413 15.3436 38.0372 15.3436 34.9818C15.2674 34.9946 15.2039 34.9818 15.1531 35.0074C13.9466 35.6082 12.7275 36.1835 11.5464 36.8355C10.1494 37.6025 9.45094 38.8425 9.43824 40.4405C9.41284 43.5469 9.42554 46.6662 9.42554 49.7726C9.42554 49.926 9.43824 50.0922 9.41284 50.2456C9.34934 50.6291 9.10805 50.8337 8.72706 50.8464C8.34607 50.8592 8.09207 50.6547 8.01587 50.284C7.99048 50.1433 8.00317 50.0027 8.00317 49.8493C8.00317 46.7812 8.00317 43.7259 8.00317 40.6578C8.00317 38.2289 9.09535 36.452 11.2416 35.3526C12.1052 34.9179 12.9561 34.4833 13.845 34.0231C13.5911 33.5245 13.3371 33.0643 13.1339 32.5913C12.4862 31.1212 12.1687 29.5615 12.1687 27.9508C12.1687 23.0546 12.1687 18.1585 12.1687 13.2623C12.1687 11.0635 12.8037 9.05647 13.9847 7.21561C14.1752 6.9088 14.4038 6.69148 14.7975 6.7554C15.3436 6.84488 15.5595 7.40737 15.2166 7.94428C14.6197 8.89028 14.1244 9.92576 13.8958 11.0507C13.7688 11.6899 13.6291 12.3419 13.6291 12.9811C13.6037 18.1329 13.591 23.2847 13.6291 28.4366C13.6418 30.188 14.2133 31.8115 15.1785 33.3455C15.5087 33.1793 15.8389 33.0259 16.1564 32.8597C17.0327 32.4251 17.909 31.9777 18.7852 31.5302C19.344 31.249 19.6361 30.8527 19.6107 30.1624C19.5599 28.7434 19.6107 27.3244 19.5853 25.9054C19.5853 25.7264 19.4456 25.4835 19.3059 25.3813C16.7533 23.6938 15.4579 21.3161 15.4325 18.248C15.4198 17.2636 15.4325 16.2665 15.4325 15.2821C15.4325 14.7069 15.6738 14.4256 16.2199 14.4128C18.9884 14.3489 20.7918 12.866 21.9602 10.4627C22.1253 10.1175 22.2523 9.75957 22.392 9.40163C22.5824 8.89028 22.938 8.58347 23.4968 8.57069C24.0556 8.54512 24.4366 8.78801 24.6652 9.36328C25.3256 10.9868 26.3289 12.3291 27.7893 13.3007C28.691 13.8887 29.6562 14.2978 30.7103 14.5407C31.5103 14.7324 31.6119 14.8603 31.5992 15.6784C31.5865 16.9696 31.65 18.2735 31.4976 19.5519C31.2056 22.0447 29.9102 23.9495 27.8274 25.3046C27.5099 25.5091 27.421 25.7137 27.421 26.0716C27.4337 27.4395 27.4464 28.8201 27.421 30.188C27.4083 30.776 27.6115 31.1851 28.1068 31.4408C29.326 32.0799 30.5579 32.6936 31.8151 33.3455C32.5136 32.2973 32.9708 31.1851 33.1867 29.9962C33.3137 29.2675 33.3899 28.5133 33.3899 27.759C33.4026 23.0163 33.4026 18.2863 33.4026 13.5436C33.3899 8.50677 30.1134 4.49268 25.1986 3.57225C22.6205 3.08647 20.233 3.63617 18.036 5.06795C17.9471 5.13187 17.8582 5.19578 17.7566 5.2597C17.3375 5.51538 16.9438 5.45146 16.7152 5.09351C16.4993 4.74835 16.5755 4.36484 16.9565 4.09638C18.0614 3.30379 19.2805 2.72853 20.5886 2.38337C27.1289 0.670349 33.6312 4.94011 34.7107 11.6516C34.7996 12.1885 34.8377 12.7254 34.8377 13.2751C34.8504 18.184 34.8504 23.1058 34.8377 28.0147C34.8377 30.0345 34.3297 31.9138 33.3264 33.6651C33.2756 33.7546 33.2375 33.8569 33.1613 33.9975C33.9741 34.4066 34.7488 34.8284 35.5362 35.2119C37.9237 36.3625 39.0413 38.2545 39.0159 40.9007C38.9778 43.9177 39.0032 46.9346 39.0032 49.9388C39.0032 50.4757 38.8 50.7569 38.3809 50.8081C37.8983 50.8592 37.5808 50.5652 37.5808 50.0411C37.5681 48.8266 37.5808 47.6122 37.5808 46.4105C37.5808 44.4674 37.5808 42.5242 37.5808 40.5683C37.5808 38.753 36.768 37.4363 35.1425 36.6309C34.0122 36.0685 32.8819 35.506 31.7008 34.9179C31.7008 36.567 31.7008 38.165 31.7008 39.7885C31.8786 39.8652 32.0691 39.9291 32.2596 40.0186C33.3518 40.5939 33.936 41.5143 33.9487 42.7543C33.9741 44.9276 33.9487 47.088 33.9614 49.2613C33.9614 50.1433 33.4661 50.6547 32.7295 51.0126C32.5517 50.9998 32.3612 50.9998 32.1707 50.9998ZM23.5857 10.4882C23.5476 10.5266 23.5222 10.5394 23.4968 10.5649C23.4587 10.6161 23.4333 10.68 23.4079 10.7311C22.138 13.4668 20.2203 15.3716 17.1216 15.8063C17.02 15.8191 16.8676 15.998 16.8676 16.1003C16.8676 17.1869 16.8168 18.2735 16.9438 19.3474C17.3121 22.4922 19.9663 24.9594 23.065 25.1384C26.3162 25.3301 29.2879 23.2208 29.9483 20.0505C30.2277 18.721 30.1642 17.302 30.2531 15.9213C27.1543 15.1032 24.9446 13.3134 23.5857 10.4882ZM26.0241 26.1994C24.335 26.7236 22.7094 26.7236 21.0331 26.1994C21.0331 26.404 21.0331 26.5574 21.0331 26.7108C21.0331 27.8869 20.995 29.0758 21.0458 30.2519C21.0839 31.3896 20.5759 32.1694 19.6488 32.7191C19.3186 32.9109 18.9884 33.0771 18.6455 33.256C18.6582 33.3455 18.6455 33.4094 18.6709 33.4606C19.2551 35.212 19.8393 36.9633 20.4489 38.7019C20.4997 38.8297 20.741 38.9576 20.9061 38.9704C22.6459 38.9831 24.3858 38.9704 26.1257 38.9959C26.4686 38.9959 26.5829 38.8681 26.6845 38.5741C27.1416 37.1679 27.6242 35.7744 28.1068 34.3682C28.2211 34.0103 28.3481 33.6523 28.4624 33.32C28.3989 33.2688 28.3735 33.2433 28.3481 33.2177C28.2084 33.141 28.0687 33.0643 27.929 33.0004C26.6083 32.3867 25.9098 31.4152 26.0241 29.8684C26.0876 28.6667 26.0241 27.465 26.0241 26.1994ZM29.4276 42.8566C30.4563 42.8566 31.4849 42.8566 32.5136 42.8566C32.5517 41.8595 31.8659 41.1308 30.9389 41.1436C30.0372 41.1564 29.3768 41.8851 29.4276 42.8566ZM15.1404 46.5511C15.1277 47.0752 15.5341 47.5099 16.0421 47.5227C16.5628 47.5482 17.02 47.088 17.02 46.5639C17.02 46.0525 16.6009 45.6307 16.0802 45.6307C15.5468 45.6179 15.1404 46.027 15.1404 46.5511Z" fill="#E31E24"/>
    <path d="M23.5347 23.2337C22.7346 23.2082 22.0107 22.9525 21.4138 22.4028C21.0582 22.0704 21.0074 21.6741 21.2741 21.3545C21.5535 21.0349 21.9472 21.0094 22.3155 21.3034C23.141 21.9554 23.8649 21.9554 24.6777 21.3162C25.0586 21.0094 25.465 21.0094 25.7317 21.3162C26.0111 21.623 25.9603 22.0704 25.592 22.4028C25.0205 22.9525 24.3221 23.1954 23.5347 23.2337Z" fill="#E31E24"/>
</svg>
