<svg width="59" height="63" viewBox="0 0 59 63" fill="none" xmlns="http://www.w3.org/2000/svg">
    <path d="M15.011 21.1153C15.0268 9.38797 24.6505 -0.015593 36.6212 -9.96019e-05C48.5131 0.0153938 58.0424 9.49642 58.0109 21.3167C57.9794 32.8736 48.4344 42.0308 36.6212 41.9998C24.7293 41.9843 14.9953 32.7962 15.011 21.1153Z" fill="#D9EBFE"/>
    <path d="M7.93534 16.8006C6.23255 20.3914 8.85497 24.2074 9.02102 30.4769C9.25429 39.284 -7.92803 48.1967 4.79736 57.3322C10.7188 61.3524 18.4254 62.9543 25.5646 62.0796C43.2077 59.9178 40.1769 41.0115 37.4138 30.7538C34.3341 19.3204 39.3486 5.94232 20.1359 6.30632C12.152 6.45758 9.63813 13.2097 7.93534 16.8006Z" fill="#D9EBFE"/>
    <path d="M10.8295 11.8202C10.8295 10.7479 10.8295 9.75402 10.8295 8.68167C10.6065 8.68167 10.3836 8.68167 10.1606 8.68167C9.47865 8.65552 9.13767 8.21089 9.34751 7.5701C9.57046 6.83777 9.83275 6.11851 10.0688 5.38618C10.2 4.98078 10.4754 4.78462 10.9082 4.75847C14.6852 4.52307 18.4623 4.26153 22.2524 4.01306C23.1311 3.96075 23.4065 4.2223 23.4065 5.09848C23.4065 5.97466 23.4065 6.86392 23.4065 7.7401C23.4065 8.40705 23.118 8.69475 22.4491 8.69475C20.7049 8.69475 18.9475 8.69475 17.1639 8.69475C17.1639 9.72786 17.1639 10.7479 17.1639 11.8333C17.4 11.8333 17.636 11.8333 17.8721 11.8333C18.3311 11.8464 18.6196 12.0818 18.6852 12.5264C18.9475 14.1872 19.1967 15.835 19.4721 17.4958C19.4983 17.6135 19.6295 17.7574 19.7606 17.8227C22.5278 19.4443 24.2065 21.8244 24.836 24.9761C25.0721 26.1923 24.9147 27.3823 24.7442 28.5723C24.6131 29.4747 24.495 30.377 24.3901 31.2532C25.3082 31.057 26.1869 30.8609 27.0787 30.6909C27.4065 30.6255 27.7606 30.6255 28.1016 30.6386C28.6918 30.6516 29.0196 31.044 28.8885 31.6063C28.7836 32.0509 28.9541 32.3386 29.3082 32.4825C29.8721 32.7048 30.4754 32.8356 31.1705 33.0448C31.0131 31.8809 30.895 30.8609 30.7508 29.8539C30.4098 27.3169 30.0295 24.7799 29.7409 22.2429C29.6229 21.1313 29.7016 19.9936 29.7147 18.8689C29.7147 18.4112 30.0295 18.1235 30.5147 18.1104C30.9082 18.0974 31.3016 18.1104 31.695 18.1104C36.4295 18.1104 41.1508 18.1104 45.8852 18.1104C46.7639 18.1104 46.9606 18.3458 47 19.2089C47.1442 22.0337 46.6196 24.793 46.2524 27.5785C45.7541 31.384 45.2426 35.1764 44.7311 38.9688C44.4557 41.035 44.1409 43.1013 43.918 45.1806C43.8 46.2398 43.8524 47.3253 43.8524 48.4107C43.8393 50.0715 42.895 51.0262 41.2426 51.0262C30.3442 51.0262 19.4459 51.0262 8.54751 51.0262C7.01308 51.0262 6.13439 50.2284 5.93767 48.6984C5.1639 42.9443 4.39013 37.1903 3.61636 31.4363C3.41964 29.9455 3.14423 28.4677 3.03931 26.9769C2.89505 24.9368 3.49833 23.0406 4.58685 21.3144C5.49177 19.8628 6.71144 18.712 8.20652 17.8751C8.42947 17.7443 8.48193 17.6135 8.52128 17.352C8.69177 16.0573 8.92783 14.7757 9.12456 13.4941C9.1639 13.2326 9.21636 12.9841 9.2557 12.7226C9.37374 12.0426 9.59669 11.8595 10.2655 11.8595C10.436 11.8202 10.6065 11.8202 10.8295 11.8202ZM13.977 49.4046C13.977 48.9076 13.977 48.4499 13.977 47.9791C13.977 45.6906 13.977 43.4151 13.977 41.1266C13.977 39.4527 14.6459 38.6681 16.3377 38.4196C16.3377 37.7265 16.3377 37.0334 16.3377 36.3272C16.3377 35.5949 16.5869 35.3464 17.3344 35.3202C18.2393 35.2941 19.0918 35.0849 19.8393 34.5618C20.6655 33.9733 21.4393 33.3194 22.2524 32.7179C22.5409 32.5086 22.6721 32.2601 22.7114 31.9071C22.8295 30.9655 22.9737 30.037 23.0787 29.0954C23.1967 28.1146 23.4196 27.1207 23.3672 26.1399C23.1967 22.6875 20.8491 19.6928 17.5705 18.5551C16.1278 18.0581 14.6459 18.0581 13.1639 18.0974C10.1475 18.1628 7.74751 19.4443 6.02947 21.916C4.99341 23.4199 4.41636 25.1068 4.61308 26.9377C4.86226 29.2524 5.22947 31.554 5.53111 33.8687C6.18685 38.7857 6.84259 43.6898 7.49833 48.6068C7.57701 49.1822 7.83931 49.4176 8.4557 49.4176C10.2 49.4176 11.9573 49.4176 13.7016 49.4176C13.8196 49.4307 13.9246 49.4046 13.977 49.4046ZM31.3803 22.8183C31.577 24.296 31.7606 25.7215 31.9573 27.1469C32.2065 29.0039 32.4557 30.8609 32.718 32.7179C32.7442 32.8617 32.8491 33.0448 32.9803 33.0971C34.4623 33.7379 35.1967 34.8364 35.1967 36.4449C35.1967 37.1118 35.1967 37.7788 35.1967 38.4327C36.7967 38.6027 37.5573 39.4527 37.5573 40.9958C37.5573 41.5843 37.5573 42.1728 37.5573 42.7613C37.5573 43.4021 37.5573 44.0559 37.5573 44.6967C39.1967 44.6967 40.7705 44.6967 42.3705 44.6967C43.3409 37.3865 44.3246 30.1155 45.295 22.8183C40.6262 22.8183 36.0229 22.8183 31.3803 22.8183ZM25.7934 40.0281C22.6983 40.0281 19.6164 40.0281 16.5213 40.0281C15.7606 40.0281 15.5508 40.2373 15.5508 40.9697C15.5508 43.4674 15.5508 45.9652 15.5508 48.463C15.5508 49.2215 15.7606 49.4307 16.5082 49.4307C22.6721 49.4307 28.836 49.4307 35 49.4307C35.7737 49.4307 35.9705 49.2215 35.9705 48.4368C35.9705 45.9783 35.9705 43.5067 35.9705 41.0481C35.9705 40.2243 35.7737 40.0281 34.9737 40.0281C31.918 40.0281 28.8491 40.0281 25.7934 40.0281ZM33.5967 36.9288C28.3508 36.9288 23.1442 36.9288 17.9508 36.9288C17.9508 37.4519 17.9508 37.9488 17.9508 38.4327C23.1836 38.4327 28.377 38.4327 33.5967 38.4327C33.5967 37.9226 33.5967 37.4388 33.5967 36.9288ZM45.3737 19.6928C40.6524 19.6928 35.9705 19.6928 31.2754 19.6928C31.2754 20.2159 31.2754 20.6998 31.2754 21.1967C35.9836 21.1967 40.6655 21.1967 45.3737 21.1967C45.3737 20.6867 45.3737 20.2028 45.3737 19.6928ZM10.7114 13.4026C10.5409 14.4357 10.3705 15.4557 10.2 16.5019C12.7442 16.5019 15.2229 16.5019 17.7541 16.5019C17.5836 15.4557 17.4 14.4226 17.2295 13.4026C15.0524 13.4026 12.9278 13.4026 10.7114 13.4026ZM27.2754 32.2732C25.5442 32.2732 22.8426 33.751 21.7016 35.2941C25.5573 35.2941 29.4131 35.2941 33.3082 35.2941C33.0196 34.7579 32.5868 34.5748 32.036 34.5356C31.3147 34.4964 30.5934 34.4702 29.8983 34.3264C28.7049 34.1041 27.6557 33.6202 27.2754 32.2732ZM37.518 49.4307C38.8295 49.4307 40.1541 49.4438 41.4655 49.4307C41.8721 49.4307 42.2 49.1953 42.2131 48.803C42.2655 47.9791 42.2262 47.1553 42.2262 46.3445C40.6393 46.3445 39.0918 46.3445 37.5049 46.3445C37.518 47.3645 37.518 48.3714 37.518 49.4307ZM11.1967 7.08624C14.7508 7.08624 18.2787 7.08624 21.7934 7.08624C21.7934 6.5893 21.7934 6.11851 21.7934 5.62157C21.4131 5.63465 21.0721 5.64773 20.7311 5.67388C17.8459 5.85696 14.9475 6.05313 12.0623 6.24929C11.3541 6.3016 11.3541 6.28852 11.1967 7.08624ZM15.5246 11.8202C15.5246 10.761 15.5246 9.74094 15.5246 8.73398C14.4754 8.73398 13.4524 8.73398 12.4557 8.73398C12.4557 9.78017 12.4557 10.8002 12.4557 11.8202C13.4787 11.8202 14.4754 11.8202 15.5246 11.8202Z" fill="#007AC7"/>
    <path d="M13.977 29.8408C12.4688 29.8408 10.9606 29.8408 9.46554 29.8408C8.75734 29.8408 8.48193 29.5662 8.48193 28.86C8.48193 27.4215 8.48193 25.983 8.48193 24.5576C8.48193 23.8514 8.75734 23.5768 9.46554 23.5768C12.4819 23.5768 15.4852 23.5768 18.5016 23.5768C19.2098 23.5768 19.4852 23.8514 19.4852 24.5576C19.4852 25.9961 19.4852 27.4346 19.4852 28.86C19.4852 29.5662 19.2098 29.8408 18.5016 29.8408C16.9934 29.8408 15.4852 29.8408 13.977 29.8408ZM10.0688 28.2454C12.6918 28.2454 15.2885 28.2454 17.859 28.2454C17.859 27.1992 17.859 26.1792 17.859 25.1461C16.5344 25.1461 15.236 25.1461 13.9508 25.1461C12.6655 25.1461 11.3803 25.1461 10.0688 25.1461C10.0688 26.1923 10.0688 27.1992 10.0688 28.2454Z" fill="#007AC7"/>
    <path d="M38.3049 30.6255C37.2951 30.5993 36.2984 30.4424 35.4197 29.867C34.0558 28.9777 34.0295 27.4869 35.4328 26.6761C37.3213 25.5776 39.3148 25.5907 41.2164 26.6631C42.6459 27.4608 42.6066 29.0039 41.2295 29.8801C40.3377 30.4555 39.341 30.6124 38.3049 30.6255ZM35.9836 28.2716C36.7049 29.3308 40.1017 29.2785 40.6656 28.2716C40.1541 27.2908 36.7705 27.1992 35.9836 28.2716Z" fill="#007AC7"/>
    <path d="M25.741 47.8614C24.0099 47.8483 22.6066 46.4229 22.6197 44.6967C22.6328 42.9705 24.0623 41.5712 25.8066 41.5974C27.5378 41.6235 28.9279 43.049 28.9017 44.7882C28.8755 46.4883 27.4591 47.8745 25.741 47.8614ZM25.7541 43.1667C24.9017 43.1667 24.1935 43.8728 24.1935 44.7229C24.1935 45.599 24.9148 46.3052 25.7935 46.2921C26.6459 46.2791 27.341 45.5598 27.3279 44.7098C27.3148 43.8598 26.6197 43.1667 25.7541 43.1667Z" fill="#007AC7"/>
</svg>
