<svg width="71" height="64" viewBox="0 0 71 64" fill="none" xmlns="http://www.w3.org/2000/svg">
    <path d="M42.0893 3.10953C42.739 3.39915 43.3887 3.68877 44.0384 3.97839C44.0925 4.04422 44.1466 4.11006 44.211 4.15269C47.1675 6.06863 48.6999 9.46361 48.046 12.9271C47.8333 14.0283 47.3562 15.0673 47.0403 16.1503C45.6071 21.1439 46 31.3054 56 35.8379C59.8402 36.3955 38.277 44.556 39.9407 41.0421C41.5528 37.6441 44.2722 35.8802 48.046 35.8379C48.8418 35.8311 49.6412 36.0344 50.4304 36.1359C51.0801 36.4255 51.7298 36.7151 52.3795 37.0048C52.4452 37.0758 52.5109 37.1468 52.5934 37.2114C57.7886 40.5008 57.8962 48.1838 52.7889 51.623C50.1611 53.3999 47.317 53.6341 44.3971 52.416C42.5601 51.6388 40.6829 50.9828 38.7165 50.6208C31.5741 49.3284 48.2444 31.7625 42.2556 35.8379C38.9049 38.1132 36.2719 41.056 34.3488 44.6213C33.7815 45.6756 33.3198 46.8049 32.6816 47.7999C30.5098 51.1431 26.2122 52.5789 22.5934 51.2439C18.6794 49.7913 16.3517 46.0278 16.854 41.9683C16.9229 41.4705 17.0318 40.9767 17.1239 40.4893C17.4135 39.8396 17.7031 39.1899 17.9928 38.5402C18.0586 38.4861 18.1244 38.432 18.1671 38.3675C20.083 35.411 23.4896 33.8839 26.9415 34.5326C28.0427 34.7453 29.0817 35.2223 30.1647 35.5382C34.9119 36.9312 39.9569 33.8814 40.954 29.0551C41.7761 25.0269 39.7943 21.1116 36.0495 19.3728C32.3409 17.6779 30.3382 13.9342 30.9706 9.98827C31.0342 9.62722 31.0978 9.26617 31.173 8.91028C31.4627 8.26058 31.7523 7.61087 32.0419 6.96117C32.0961 6.9019 32.1736 6.85298 32.2162 6.78854C34.2173 3.82824 37.0084 2.52741 40.5535 2.84215C41.0732 2.89303 41.5735 3.01868 42.0893 3.10953Z" fill="#FFDCDD"/>
    <path d="M39.3667 60.1504C34.938 59.416 33.159 54.9155 27.5 50.9983C19.5505 45.4957 0 54.5472 0 38.3615C0.21227 30.9689 3.82889 23.5351 9.34959 18.0699C22.9927 4.56379 38.3868 18.4999 46 27C54.4858 36.4743 70.1076 40.3265 57.0817 56.2333C51.6688 62.8435 43.7955 60.8849 39.3667 60.1504Z" fill="#FFDCDD"/>
    <path d="M50.0001 55.8437C49.6087 56.7047 48.9304 56.9656 48.0043 56.9656C34.9988 56.9395 22.0063 56.9525 9.00086 56.9525C8.79215 56.9525 8.57039 56.9656 8.36167 56.9395C7.98338 56.8873 7.77467 56.6395 7.74858 56.2873C7.72249 55.922 7.90511 55.6481 8.25732 55.5568C8.49212 55.4915 8.73997 55.5046 8.98781 55.5046C21.9281 55.5046 34.8553 55.5046 47.7955 55.5046C48.0173 55.5046 48.2521 55.5046 48.4999 55.5046C48.4999 54.6045 48.4999 53.7305 48.4999 52.8043C48.3043 52.8043 48.1347 52.8043 47.9651 52.8043C41.5211 52.8043 35.077 52.8043 28.633 52.7913C28.2678 52.7913 28.0069 52.8565 27.8242 53.1826C27.4329 53.9001 26.8198 54.1219 26.0241 54.0697C25.2414 54.0175 24.4587 54.0436 23.676 54.0697C23.089 54.0827 22.6064 53.9001 22.3194 53.3783C22.0455 52.8957 21.6672 52.7783 21.1193 52.7783C14.7796 52.7913 8.4269 52.7913 2.08722 52.7913C1.89155 52.7913 1.70892 52.7913 1.48716 52.7913C1.48716 53.7044 1.48716 54.5523 1.48716 55.4654C1.65674 55.4785 1.82632 55.4915 1.9959 55.4915C2.9612 55.4915 3.91346 55.4915 4.87876 55.4915C5.45273 55.5046 5.7658 55.7785 5.7658 56.2481C5.75275 56.7047 5.46577 56.9525 4.90485 56.9525C3.79606 56.9656 2.68727 56.9656 1.59152 56.9525C0.626219 56.9395 0.0261664 56.3133 0.0131218 55.348C7.7212e-05 54.5523 0.0131218 53.7566 0.0131218 52.9609C0.0261664 51.9564 0.626219 51.3564 1.61761 51.3303C1.89155 51.3303 2.16548 51.3303 2.53073 51.3303C2.53073 51.0825 2.53073 50.8868 2.53073 50.6781C2.53073 50.1693 2.51769 49.6736 2.53073 49.1649C2.56987 47.6517 3.65257 46.6342 5.16574 46.6473C6.83545 46.6603 8.51821 46.7125 10.1879 46.569C12.5881 46.3733 14.9622 46.0211 17.3625 45.7342C17.9364 45.6689 18.5234 45.6168 19.1365 45.5515C19.1365 45.0298 19.1365 44.521 19.1365 43.9601C18.3278 44.0905 17.532 44.234 16.7494 44.3645C14.9231 44.6645 13.2664 43.36 13.1882 41.5077C13.136 40.1119 13.1751 38.7031 13.1621 37.3073C13.1621 37.1117 13.1621 36.9291 13.1621 36.6942C12.6142 36.6942 12.1316 36.7073 11.6359 36.6942C10.514 36.6682 9.94007 35.7289 10.4749 34.7245C11.3228 33.1461 12.1707 31.5808 13.0316 30.0154C13.2143 29.6893 13.2664 29.3762 13.2273 28.9979C13.1621 28.3066 13.149 27.6022 13.1751 26.8977C13.2012 25.9846 13.8143 25.3846 14.7405 25.3715C15.8493 25.3585 16.945 25.3715 18.119 25.3715C18.0016 25.0454 17.9234 24.7454 17.7929 24.4845C17.7407 24.3932 17.5842 24.3149 17.4668 24.3019C16.9711 24.2497 16.4624 24.2236 15.9536 24.1975C15.1449 24.1453 14.7405 23.7409 14.7405 22.9191C14.7274 22.1365 14.7274 21.3538 14.7405 20.5711C14.7535 19.7884 15.1449 19.384 15.9406 19.3188C16.4493 19.2797 16.945 19.2797 17.4538 19.2145C17.5973 19.2014 17.7799 19.0579 17.8582 18.9144C18.0016 18.6405 18.0408 18.3013 18.2104 18.0665C18.6017 17.5187 18.4191 17.1404 17.9886 16.736C17.7147 16.4881 17.4799 16.1881 17.2451 15.9011C16.8276 15.3924 16.8276 14.8315 17.2842 14.3619C17.8712 13.7357 18.4843 13.1226 19.1104 12.5356C19.58 12.0791 20.141 12.066 20.6497 12.4834C21.0671 12.8226 21.4715 13.1748 21.8498 13.5531C22.0455 13.7488 22.2151 13.7618 22.4499 13.6314C22.6977 13.4879 22.9716 13.3313 23.2456 13.2792C23.8978 13.1748 24.0543 12.7704 24.0283 12.1834C24.0152 11.779 24.0413 11.3747 24.1065 10.9703C24.1978 10.3833 24.5761 10.0311 25.1631 10.018C26.0632 9.99192 26.9502 9.99192 27.8503 10.018C28.4634 10.0311 28.8678 10.4615 28.92 11.0746C28.9591 11.6095 28.9982 12.1443 29.0113 12.6791C29.0113 12.94 29.1157 13.0444 29.3505 13.1226C29.7809 13.2661 30.1853 13.4879 30.6158 13.6314C30.7593 13.6835 30.9941 13.6575 31.1115 13.5661C31.5289 13.2531 31.8942 12.8878 32.2985 12.5487C32.8855 12.053 33.4334 12.066 33.9813 12.6008C34.5553 13.1618 35.1162 13.7227 35.6771 14.2966C36.1989 14.8315 36.2119 15.3924 35.7423 15.9533C35.7162 15.9924 35.6771 16.0316 35.651 16.0577C35.2727 16.5012 34.6727 16.9056 34.5813 17.4013C34.5031 17.8709 34.9336 18.4448 35.1814 18.9536C35.2336 19.071 35.4292 19.2014 35.5597 19.2145C36.0423 19.2666 36.538 19.2797 37.0207 19.3188C37.8555 19.371 38.273 19.7884 38.286 20.6233C38.2991 21.3929 38.2991 22.1495 38.286 22.9191C38.273 23.7149 37.8425 24.1453 37.0468 24.1975C36.7598 24.2106 36.4598 24.2236 36.1728 24.2497C35.2075 24.341 35.2075 24.341 34.9075 25.3454C35.051 25.3585 35.1944 25.3715 35.3249 25.3715C36.238 25.3715 37.1511 25.3715 38.0643 25.3715C39.1209 25.3846 39.734 25.9716 39.7601 27.0282C39.8122 29.0371 39.5122 31.0198 39.0426 32.9635C38.573 34.9071 37.9469 36.8117 36.7337 38.4553C36.6424 38.5727 36.6424 38.7553 36.6424 38.9118C36.6293 39.3684 36.6554 39.825 36.6293 40.2815C36.6033 40.7381 36.2771 41.012 35.8597 40.9859C35.4684 40.9598 35.1944 40.6859 35.1814 40.2424C35.1684 39.6423 35.1553 39.0423 35.1944 38.4422C35.2075 38.2074 35.2858 37.9465 35.4292 37.7639C36.6946 36.1333 37.3077 34.2288 37.699 32.2721C37.999 30.7589 38.1164 29.2197 38.3121 27.6935C38.3382 27.4326 38.3121 27.1717 38.3121 26.8717C30.4201 26.8717 22.5803 26.8717 14.6361 26.8717C14.6753 27.6022 14.6883 28.3327 14.7535 29.0501C14.8057 29.5328 14.7666 29.9632 14.5187 30.4067C13.723 31.8286 12.9664 33.2635 12.1837 34.6854C12.1055 34.8419 12.0272 34.9984 11.9229 35.2202C12.3403 35.2202 12.6925 35.2202 13.0447 35.2202C14.01 35.2333 14.6231 35.8333 14.6492 36.8117C14.6753 38.0378 14.6492 39.251 14.6492 40.4772C14.6492 40.7642 14.6361 41.0642 14.6492 41.3512C14.7014 42.3947 15.5362 43.0731 16.5667 42.9035C17.4929 42.7469 18.4191 42.5774 19.3583 42.4208C20.154 42.2904 20.6367 42.6817 20.6497 43.5035C20.6627 44.1036 20.6497 44.7036 20.6627 45.3037C20.6627 45.3298 20.6758 45.3689 20.7019 45.4341C21.2758 45.4733 21.8889 45.4733 22.4629 45.5646C23.2325 45.695 23.9761 45.9298 24.7327 46.0994C24.8892 46.1385 25.0979 46.1907 25.2284 46.1385C26.9633 45.408 28.7765 45.382 30.6027 45.5254C32.1029 45.6429 33.603 45.8255 35.1684 45.982C35.1684 45.4863 35.1684 45.0037 35.1684 44.521C35.1684 43.2948 35.351 42.8904 35.9119 42.9557C36.4076 43.0209 36.7076 43.0861 36.6424 44.5471C36.6163 45.0558 36.6424 45.5515 36.6424 46.0603C36.6424 46.0864 36.6554 46.1255 36.6815 46.2168C37.5686 46.3212 38.4817 46.4777 39.4079 46.5168C41.1819 46.5951 42.956 46.6342 44.717 46.6082C46.4519 46.5951 47.5086 47.5735 47.5086 49.3084C47.5086 49.9345 47.5086 50.5737 47.5086 51.2912C48.5652 51.2129 49.5566 51.252 50.0262 52.3869C50.0001 53.5609 50.0001 54.6958 50.0001 55.8437ZM4.00477 51.3173C4.26567 51.3173 4.46133 51.3173 4.64396 51.3173C10.2271 51.3173 15.7971 51.3303 21.3802 51.3042C22.2542 51.3042 22.8803 51.5129 23.3499 52.2695C23.4543 52.4391 23.7543 52.5695 23.9761 52.5826C24.5892 52.6217 25.2153 52.5695 25.8284 52.6087C26.2719 52.6348 26.572 52.5174 26.7937 52.126C27.1329 51.5129 27.6677 51.3173 28.3852 51.3173C34.0465 51.3434 39.7079 51.3303 45.3692 51.3303C45.578 51.3303 45.7736 51.3303 46.0215 51.3303C46.0215 50.6389 46.0215 50.0258 46.0215 49.4127C46.0215 48.4344 45.6562 48.1344 44.6779 48.1344C42.7342 48.1083 40.7775 48.1344 38.8339 47.9648C36.0293 47.73 33.2508 47.3256 30.4462 47.0256C29.1026 46.8821 27.746 46.9473 26.4285 47.2865C25.9197 47.4169 25.6327 47.6387 25.7241 48.2126C25.7632 48.4605 25.7371 48.7344 25.7371 48.9953C25.7371 49.778 25.5284 50.0911 25.0196 50.1041C24.4979 50.1172 24.2631 49.778 24.2631 48.9823C24.2631 47.3126 24.237 47.2865 22.5542 47.0778C22.489 47.0647 22.4238 47.0647 22.3585 47.0647C20.167 46.8169 18.0147 47.1691 15.8493 47.4039C13.5665 47.6517 11.2967 47.9517 9.0139 48.1344C7.72249 48.2387 6.41803 48.1344 5.11357 48.1344C4.48742 48.1344 4.03086 48.4474 4.00477 48.9823C3.96564 49.7258 4.00477 50.4824 4.00477 51.3173ZM21.7063 25.3715C19.6192 22.2017 20.6627 19.084 22.3846 17.4534C24.3935 15.575 27.3155 15.2619 29.6374 16.7229C31.0984 17.6491 32.0116 18.9666 32.3377 20.6755C32.6638 22.3713 32.2464 23.9105 31.268 25.3585C31.4245 25.3715 31.5159 25.3715 31.5941 25.3715C33.316 25.3976 33.316 25.3976 33.8769 23.7279C34.0857 23.1278 34.4118 22.88 35.064 22.8278C35.6249 22.7887 36.1989 22.7626 36.7728 22.7235C36.7728 22.0582 36.7728 21.432 36.7728 20.7798C36.2119 20.7407 35.6771 20.7016 35.1423 20.6755C34.3987 20.6363 34.0987 20.4015 33.8508 19.7102C33.6421 19.1362 33.4073 18.5622 33.1464 18.0013C32.8334 17.3491 32.8595 16.9969 33.3421 16.449C33.7074 16.0185 34.0856 15.6011 34.4248 15.2228C33.9552 14.7402 33.5247 14.2966 33.0812 13.8401C33.0682 13.8531 33.029 13.8531 33.0029 13.8792C32.5986 14.2314 32.1942 14.5836 31.7898 14.9358C31.268 15.3924 30.9028 15.4054 30.2766 15.1185C29.7548 14.8706 29.22 14.6228 28.6591 14.4401C27.8503 14.1662 27.6286 13.9053 27.5764 13.0313C27.5503 12.5226 27.5112 12.0008 27.4851 11.5051C26.7937 11.5051 26.1676 11.5051 25.5414 11.5051C25.5023 12.0791 25.4632 12.6139 25.424 13.1487C25.3849 13.8531 25.124 14.1662 24.4718 14.401C23.8978 14.6097 23.3238 14.8445 22.7629 15.1054C22.1107 15.4054 21.7454 15.3924 21.1976 14.9228C20.7671 14.5575 20.3497 14.1792 19.9714 13.8401C19.4887 14.3227 19.0452 14.7663 18.6017 15.2228C18.6017 15.2098 18.6017 15.2489 18.6278 15.275C18.9669 15.6663 19.3191 16.0577 19.6583 16.449C20.1279 16.9838 20.154 17.3621 19.854 18.0013C19.5931 18.5622 19.3583 19.1232 19.1496 19.7102C18.9148 20.3754 18.6147 20.6363 17.9103 20.6755C17.3494 20.7146 16.7885 20.7537 16.2276 20.7929C16.2276 21.4581 16.2276 22.0712 16.2276 22.7235C16.7754 22.7626 17.3103 22.8017 17.8451 22.8278C18.6017 22.867 18.9148 23.1148 19.1626 23.8323C19.3061 24.2627 19.4757 24.6932 19.6583 25.0976C19.7105 25.215 19.8801 25.3454 19.9975 25.3454C20.5323 25.3846 21.0932 25.3715 21.7063 25.3715ZM26.4546 25.3715C27.2242 25.3715 27.9808 25.3976 28.7504 25.3585C29.0113 25.3454 29.3244 25.228 29.52 25.0585C31.3985 23.3627 31.4637 20.4276 29.6766 18.6144C27.9025 16.8012 24.9805 16.8534 23.2195 18.7057C21.4846 20.5581 21.628 23.4931 23.5586 25.1498C23.7152 25.2802 23.963 25.3585 24.1587 25.3715C24.9283 25.3976 25.6849 25.3715 26.4546 25.3715Z" fill="#E31E24"/>
</svg>
