<svg width="82" height="82" viewBox="8 0 82 82" fill="none" xmlns="http://www.w3.org/2000/svg">
    <path d="M77.2146 43.3916C76.7766 43.9001 76.3386 44.4085 75.9006 44.9169C75.8264 44.9479 75.7523 44.9789 75.6963 45.0255C73.1628 47.1768 69.6795 47.6398 66.7276 46.109C65.7904 45.6179 64.9812 44.9049 64.0884 44.3255C59.9657 41.6753 54.4102 43.2951 52.344 47.7312C50.798 51.0495 51.6164 54.8548 54.3397 57.3117C56.9723 59.6905 57.8279 62.6263 56.8418 66.0474C56.6321 66.7683 56.2313 67.4353 55.9255 68.1208C55.4875 68.6293 55.0494 69.1377 54.6114 69.6461C54.5294 69.6862 54.4475 69.7262 54.3667 69.7832C49.9847 73.5844 43.0137 71.5964 41.2925 66.0484C40.4003 63.1919 40.9607 60.5586 42.8538 58.2511C44.0545 56.8023 45.1567 55.2843 46.0175 53.6058C49.1238 47.5034 49.6557 41.1761 47.599 34.659C46.4527 31.0141 44.5085 27.8364 41.8092 25.1313C41.0105 24.3325 40.1155 23.6089 39.3897 22.7622C36.9586 19.8926 36.8277 15.6199 39.0161 12.7126C41.3909 9.57052 45.423 8.48888 48.9545 10.0445C49.3855 10.2419 49.8021 10.4743 50.2175 10.6898C50.7259 11.1278 51.2343 11.5658 51.7428 12.0039C51.7738 12.078 51.8048 12.1522 51.8514 12.2082C54.0027 14.7417 54.4579 18.2341 52.9349 21.1768C52.4438 22.114 51.7308 22.9233 51.1514 23.8161C48.6044 27.7272 49.9906 33.1131 54.0807 35.324C57.4971 37.1601 61.5724 36.4321 64.1598 33.5206C66.6978 30.6298 70.6239 29.8365 74.0174 31.4789C74.3263 31.6343 74.6353 31.7898 74.9364 31.9543C75.4448 32.3923 75.9532 32.8303 76.4616 33.2683C76.5005 33.3334 76.5236 33.4167 76.5703 33.4727C78.7019 36.0841 79.1196 38.959 77.8731 42.0766C77.686 42.5324 77.4367 42.9503 77.2146 43.3916Z" fill="#FFDCDD"/>
    <path d="M46.4616 56.1077C38.7951 64.9822 25.3663 65.8249 16.3073 57.9998C7.30794 50.2262 6.27678 36.8234 14.0158 27.8888C21.583 19.1537 34.7913 18.4462 43.7209 26.1802C52.7202 33.9539 54.0977 47.2684 46.4616 56.1077Z" fill="#FFDCDD"/>
    <g clip-path="url(#clip0_1693_10)">
        <path d="M69 59.868C68.7443 60.7124 68.412 61.5049 67.7088 62.0766C66.4944 63.0639 65.1393 63.2848 63.7331 62.5962C62.3269 61.9077 61.5854 60.7124 61.6494 59.1145C61.7516 56.5421 61.9178 53.9697 62.0584 51.3974C62.1351 50.0592 62.1735 48.7081 62.2885 47.37C62.6976 43.0567 62.3908 38.7305 62.4803 34.4042C62.5059 33.235 61.4576 32.4945 60.4733 32.9492C59.8724 33.222 59.604 33.7287 59.6168 34.3913C59.6168 36.34 59.6168 38.2758 59.6168 40.2245C59.6168 43.5894 59.6168 46.9672 59.6168 50.3321C59.6168 55.139 56.7021 58.6338 51.9977 59.4133C51.9849 59.5432 51.9721 59.6731 51.9721 59.816C51.9721 60.4916 51.9721 61.1801 51.9721 61.8557C51.9593 62.5832 51.6014 62.947 50.8727 62.96C50.796 62.96 50.7193 62.96 50.6298 62.96C40.8758 62.96 31.1091 62.96 21.3551 62.96C20.2812 62.986 20 62.7002 20 61.6348C20 50.5399 20 39.432 20 28.3371C20 27.2978 20.294 26.999 21.3039 26.999C31.0963 26.999 40.8886 26.999 50.6809 26.999C51.6653 26.999 51.9593 27.3108 51.9593 28.3111C51.9593 36.4829 51.9593 44.6417 51.9593 52.8135C51.9593 53.0084 51.9593 53.2032 51.9593 53.3981C52.9053 53.2422 53.7874 52.1119 53.8641 50.9427C53.8769 50.7478 53.8769 50.5529 53.8769 50.358C53.8769 45.0055 53.8769 39.6659 53.8769 34.3133C53.8769 30.8185 56.2035 27.9084 59.5656 27.1549C63.9121 26.1935 68.1691 29.5973 68.2202 34.1444C68.2585 37.938 68.2202 41.7316 68.233 45.5251C68.233 46.3046 68.3097 47.0711 68.3608 47.8507C68.412 48.5392 68.0796 49.0329 67.5043 49.0849C66.9546 49.1368 66.5327 48.7341 66.4688 48.0585C66.4305 47.7207 66.4305 47.383 66.4049 47.0452C66.3666 46.3566 65.9063 45.8889 65.2927 45.8889C64.6919 45.9019 64.2445 46.3566 64.2061 47.0192C63.976 51.0336 63.7587 55.0481 63.5414 59.0495C63.4647 60.4266 64.628 61.362 65.8424 60.9593C66.5839 60.7124 67.0824 60.0369 67.0569 59.2314C67.0441 58.4909 66.9802 57.7373 66.9546 56.9968C66.929 56.3472 67.287 55.9185 67.8367 55.8925C68.3992 55.8665 68.7955 56.2433 68.8594 56.8799C68.9105 57.3606 68.9361 57.8413 68.9872 58.322C69 58.8416 69 59.3483 69 59.868ZM21.9303 53.2292C31.3136 53.2292 40.6713 53.2292 50.0034 53.2292C50.0034 45.1224 50.0034 37.0416 50.0034 28.9737C40.6329 28.9737 31.288 28.9737 21.9303 28.9737C21.9303 37.0675 21.9303 45.1224 21.9303 53.2292ZM21.9303 61.0112C31.3136 61.0112 40.6585 61.0112 50.0034 61.0112C50.0034 59.0625 50.0034 57.1397 50.0034 55.2299C40.6329 55.2299 31.288 55.2299 21.9303 55.2299C21.9303 57.1657 21.9303 59.0625 21.9303 61.0112ZM66.3026 43.9921C66.3026 40.6403 66.4177 37.2494 66.2771 33.8716C66.1237 30.3378 62.4803 28.0643 59.2332 29.2985C57.1239 30.078 55.7944 32.0398 55.7944 34.4042C55.7816 39.7958 55.7944 45.2003 55.7944 50.5919C55.7944 52.9304 54.4649 54.7233 52.2789 55.4118C52.1766 55.4378 52.0744 55.4898 51.9977 55.5158C51.9977 56.1653 51.9977 56.8019 51.9977 57.4645C52.3172 57.3866 52.5985 57.3346 52.8669 57.2566C55.7561 56.3992 57.6992 53.7749 57.712 50.7088C57.7248 45.2783 57.712 39.8478 57.712 34.4172C57.712 33.274 58.1083 32.3126 58.9903 31.624C60.0642 30.7796 61.2659 30.6237 62.4931 31.2213C63.7203 31.8189 64.3851 32.8582 64.3979 34.2483C64.4234 37.3274 64.4106 40.4064 64.4106 43.4854C64.4106 43.6543 64.4106 43.8232 64.4106 43.9791C65.0626 43.9921 65.6507 43.9921 66.3026 43.9921Z" fill="#E31E24"/>
        <path d="M67.6833 53.4381C67.1591 53.4511 66.7117 52.9834 66.7117 52.4507C66.7245 51.9311 67.1464 51.5023 67.6577 51.5023C68.1818 51.5023 68.6037 51.9051 68.6165 52.4248C68.6293 52.9834 68.2074 53.4381 67.6833 53.4381Z" fill="#E31E24"/>
        <path d="M36.0052 32.3526C36.7211 32.3526 37.437 32.3656 38.1529 32.3526C38.6387 32.3396 38.971 32.5345 39.2139 32.9502C41.8729 37.5753 44.5447 42.1873 47.2038 46.8124C47.5745 47.462 47.4339 48.0206 46.7691 48.3454C43.9056 49.7875 40.8886 50.7099 37.7182 51.1126C35.0209 51.4634 32.3491 51.3725 29.7156 50.6319C28.0793 50.1642 26.5325 49.4887 25.1902 48.4104C24.4487 47.8257 24.3848 47.449 24.8578 46.6305C27.4529 42.1224 30.0608 37.6143 32.6559 33.0931C32.9627 32.5605 33.3462 32.3006 33.9598 32.3266C34.6374 32.3786 35.3277 32.3526 36.0052 32.3526ZM29.8051 41.9015C32.5408 42.9538 32.707 43.0968 34.42 45.7341C34.4967 45.864 34.7268 45.9419 34.893 45.9419C35.7112 45.916 36.4654 45.6301 37.1046 45.1235C37.7949 44.5648 38.4469 43.9282 39.0733 43.2916C39.8148 42.5511 40.6329 41.9665 41.6428 41.6936C41.7451 41.6677 41.8346 41.6287 41.9752 41.5767C41.4767 40.7063 40.9909 39.8878 40.5051 39.0303C39.7508 39.7449 38.9455 40.2516 37.9995 40.5244C36.7083 40.8882 35.4811 40.6803 34.2538 40.2126C33.4357 39.9008 32.5792 39.641 31.6971 39.7579C31.4159 39.7969 31.0451 39.8878 30.8917 40.0957C30.4827 40.6413 30.1631 41.2779 29.8051 41.9015ZM45.0817 47.0073C45.005 46.8643 44.9538 46.7474 44.8899 46.6435C44.3274 45.6691 43.7777 44.6817 43.1897 43.7204C43.113 43.6034 42.8829 43.5125 42.7167 43.5125C41.7579 43.5125 41.0548 44.0322 40.39 44.6817C39.6869 45.3833 38.9838 46.0978 38.1912 46.6825C37.5648 47.1502 36.8234 47.436 36.1331 47.7868C37.1685 48.6312 38.7537 49.008 40.0577 48.6962C41.7835 48.3064 43.4581 47.7478 45.0817 47.0073ZM34.8163 49.3328C33.7681 48.4883 33.0905 47.397 32.4769 46.2278C31.9016 45.1364 31.0196 44.3569 29.8435 43.9672C28.8208 43.6294 28.7952 43.6424 28.2455 44.5908C28.1944 44.6687 28.156 44.7597 28.1049 44.8376C27.6574 45.6171 27.21 46.3837 26.7498 47.1891C29.2426 48.8001 31.9528 49.3458 34.8163 49.3328ZM32.2724 37.6272C33.3973 37.952 34.4712 38.2768 35.5578 38.5886C37.0023 39.0174 38.2168 38.5886 39.2651 37.5363C39.4313 37.3674 39.4824 37.2245 39.3546 36.9907C38.8688 36.1722 38.4086 35.3407 37.91 34.5222C37.8461 34.4183 37.6671 34.3144 37.5393 34.3144C36.5038 34.3014 35.4683 34.3014 34.4328 34.3144C34.3178 34.3144 34.1516 34.4053 34.1004 34.4962C33.4613 35.5486 32.8476 36.6139 32.2724 37.6272Z" fill="#E31E24"/>
        <path d="M26.1873 37.2115C25.7271 37.2115 25.2669 37.2245 24.8067 37.2115C24.2314 37.1855 23.8223 36.7697 23.8351 36.2371C23.8351 35.7044 24.2442 35.2887 24.8323 35.2757C25.7655 35.2627 26.7115 35.2627 27.6447 35.2757C28.2199 35.2887 28.629 35.7174 28.6162 36.2501C28.6162 36.7827 28.2072 37.1985 27.6191 37.2115C27.1461 37.2245 26.6603 37.2115 26.1873 37.2115Z" fill="#E31E24"/>
        <path d="M25.4714 33.3139C25.2158 33.3139 24.9601 33.3269 24.7044 33.3139C24.1931 33.262 23.8223 32.8462 23.8223 32.3396C23.8223 31.8329 24.2059 31.4171 24.7172 31.3912C25.2413 31.3652 25.7655 31.3652 26.2896 31.3912C26.8009 31.4171 27.1717 31.8589 27.1717 32.3655C27.1717 32.8722 26.7882 33.275 26.2768 33.3269C26.0084 33.3399 25.7399 33.3269 25.4714 33.3139Z" fill="#E31E24"/>
        <path d="M44.1101 57.1537C44.7749 57.1537 45.4396 57.1407 46.1172 57.1537C46.7436 57.1667 47.1526 57.5435 47.1654 58.1021C47.1782 58.6738 46.7436 59.0895 46.1044 59.0895C44.7365 59.1025 43.3686 59.1025 42.0008 59.0895C41.3616 59.0895 40.9269 58.6608 40.9525 58.0891C40.9653 57.5305 41.3872 57.1537 42.0136 57.1407C42.7167 57.1407 43.4198 57.1537 44.1101 57.1537Z" fill="#E31E24"/>
        <path d="M26.6987 58.1281C26.6987 58.6608 26.2385 59.1025 25.7143 59.0895C25.203 59.0765 24.7939 58.6348 24.7939 58.1151C24.7939 57.5825 25.2541 57.1408 25.7782 57.1538C26.2896 57.1797 26.6987 57.6215 26.6987 58.1281Z" fill="#E31E24"/>
        <path d="M30.0224 57.1537C30.5338 57.1407 30.9684 57.5565 30.994 58.0761C31.0196 58.6088 30.5849 59.0765 30.0608 59.0895C29.5366 59.1025 29.0892 58.6608 29.0892 58.1151C29.102 57.6084 29.5111 57.1667 30.0224 57.1537Z" fill="#E31E24"/>
    </g>
    <defs>
        <clipPath id="clip0_1693_10">
            <rect width="49" height="36" fill="white" transform="translate(20 27)"/>
        </clipPath>
    </defs>
</svg>
