<svg width="59" height="58" viewBox="0 0 59 58" fill="none" xmlns="http://www.w3.org/2000/svg">
    <path d="M57.999 7.17804C57.999 7.8491 57.999 8.52017 57.999 9.19124C57.9631 9.26314 57.9271 9.33504 57.9151 9.40694C57.3998 12.6904 55.0631 15.3147 51.8276 16.0817C50.797 16.3213 49.7185 16.3094 48.664 16.4532C43.8107 17.1362 40.6591 21.9895 41.9892 26.6989C42.9838 30.222 46.0875 32.5708 49.7544 32.6547C53.3015 32.7386 55.866 34.4042 57.3519 37.6398C57.6635 38.3228 57.7953 39.0897 58.011 39.8087C58.011 40.4798 58.011 41.1509 58.011 41.8219C57.975 41.9058 57.9391 41.9897 57.9151 42.0856C57.0763 47.8256 50.4974 50.8694 45.5722 47.7897C43.0318 46.2079 41.7376 43.8471 41.6657 40.8633C41.6297 38.9819 41.4739 37.1125 41.0305 35.279C39.4008 28.6283 35.674 23.4874 29.862 19.8924C26.6146 17.8792 23.0675 16.7408 19.2568 16.4532C18.1303 16.3693 16.9799 16.4052 15.8775 16.2375C12.1626 15.6503 9.27461 12.4986 9.03495 8.86769C8.78329 4.93714 11.132 1.48594 14.8229 0.359499C15.2783 0.227682 15.7456 0.131815 16.201 0.0239649C16.8721 0.0239649 17.5431 0.023965 18.2142 0.023965C18.2861 0.0599151 18.358 0.0958652 18.4299 0.107849C21.7134 0.623133 24.3377 2.97187 25.1046 6.1954C25.3443 7.22597 25.3323 8.30447 25.4761 9.35901C26.0993 13.9846 30.6649 17.1602 35.2066 16.1656C38.9934 15.3267 41.6057 12.1152 41.6657 8.22059C41.7016 4.37393 44.1582 1.21032 47.8012 0.239667C48.1367 0.155783 48.4722 0.0718998 48.8078 -4.02286e-07C49.4788 -3.72953e-07 50.1499 -3.43619e-07 50.821 -3.14286e-07C50.8929 0.0239664 50.9648 0.0718999 51.0367 0.0838832C54.3561 0.671068 56.549 2.57642 57.6395 5.75202C57.7953 6.21937 57.8792 6.6987 57.999 7.17804Z" fill="#F3F3F3"/>
    <path d="M43 36.8846C42.9842 48.6119 33.3604 58.0155 21.3898 58C9.49785 57.9845 -0.0314269 48.5035 7.53899e-05 36.6832C0.0315777 25.1262 9.57661 15.9691 21.3898 16.0001C33.2817 16.0156 43.0157 25.2037 43 36.8846Z" fill="#F3F3F3"/>
    <g clip-path="url(#clip0_1693_10)">
        <path d="M27.0577 4C27.8313 4.14714 28.6172 4.2575 29.3908 4.45369C32.0555 5.14036 34.2904 6.55048 36.12 8.61049C36.4884 9.02739 36.5007 9.40751 36.1814 9.7018C35.8744 9.98382 35.4692 9.92251 35.1008 9.53013C34.9657 9.38299 34.8307 9.23585 34.6956 9.0887C33.5045 7.87477 33.5045 7.86251 31.8222 8.04644C29.8329 8.25489 27.9172 8.74537 26.0876 9.57918C26.0139 9.61597 25.9279 9.65275 25.8788 9.67728C26.8244 9.82442 27.8067 9.88573 28.7277 10.1432C33.0378 11.3204 35.8007 14.1038 37.0533 18.3833C37.2743 19.1435 37.262 19.1558 38.0847 19.0209C38.2075 16.9486 38.0356 14.9131 37.2129 12.9635C37.0533 12.5711 36.8568 12.191 36.6726 11.7986C36.4638 11.3449 36.5744 10.9648 36.955 10.7809C37.3234 10.6092 37.6672 10.7441 37.9006 11.1732C38.9812 13.1965 39.4969 15.3546 39.4846 17.6475C39.4846 17.7947 39.4969 17.9541 39.4846 18.1012C39.4232 18.8124 39.4969 19.4133 40.1846 19.9037C40.5652 20.1735 40.8231 20.7743 40.9091 21.2771C41.0319 21.9883 41.0318 22.7485 40.9459 23.4597C40.774 24.8453 39.6688 25.7649 38.2567 25.8017C37.2497 25.8262 37.3357 25.863 36.9919 26.7582C36.6603 27.6288 36.9059 28.1315 37.5444 28.7446C40.5038 31.6261 43.4141 34.569 46.3366 37.4873C46.8524 38.0023 47.1103 38.5909 46.9506 39.3144C46.791 40.0256 46.3489 40.516 45.6367 40.7122C44.9245 40.9207 44.2982 40.7368 43.7825 40.2218C42.6528 39.1059 41.523 37.9778 40.4056 36.8497C39.6688 36.114 38.9443 35.366 38.183 34.6548C37.9497 34.4341 37.6304 34.2379 37.3234 34.1889C35.7271 33.9314 34.5482 33.0363 33.5536 31.8469C32.5098 30.5839 32.166 29.1492 32.5221 27.5552C32.8414 26.1451 34.2781 25.6791 35.3955 26.5987C35.4446 26.6355 35.4938 26.6723 35.6411 26.7949C35.7639 25.9611 35.9481 25.2009 35.9849 24.4406C36.0709 22.5033 36.1937 20.5536 35.6902 18.653C34.4623 14.0425 30.1767 10.9403 25.3508 11.161C20.7337 11.3817 16.6323 14.9254 15.9815 19.5359C15.5517 22.5523 15.5394 25.6178 16.9516 28.4748C18.5234 31.6629 21.0161 33.8088 24.4421 34.7529C26.149 35.2312 27.8558 34.9614 29.4276 34.1153C30.189 33.7107 30.9135 33.1957 31.6257 32.7175C32.08 32.4109 32.4607 32.3986 32.7186 32.7297C32.9764 33.0608 32.8905 33.49 32.473 33.7965C32.0309 34.1276 31.5643 34.4096 31.1222 34.7529C30.9749 34.8633 30.8521 35.0717 30.8398 35.2434C30.8029 35.6971 30.8152 36.1631 30.8275 36.6167C30.8398 37.6713 31.4292 38.456 32.4484 38.7626C34.6096 39.4125 36.7831 40.0501 38.9566 40.7C41.9774 41.5951 43.7702 43.9862 43.807 47.113C43.807 47.5299 43.8193 47.9345 43.807 48.3514C43.7579 49.8596 42.6405 50.9632 41.1178 50.9755C38.2198 50.9877 35.3218 50.9755 32.4361 50.9755C28.9856 50.9755 25.5473 50.9755 22.0967 50.9755C21.9616 50.9755 21.8143 50.9877 21.6792 50.9632C21.2985 50.9019 21.0652 50.6812 21.0652 50.2888C21.0652 49.8964 21.2863 49.6634 21.6669 49.6021C21.8143 49.5776 21.9739 49.5899 22.1213 49.5899C26.3086 49.5899 30.4837 49.5899 34.671 49.5899C34.8552 49.5899 35.0394 49.5899 35.2482 49.5899C35.2482 48.7561 35.2482 47.959 35.2482 47.113C29.3048 47.113 23.3738 47.113 17.4182 47.113C17.4182 47.9223 17.4182 48.7193 17.4182 49.5899C17.8234 49.5899 18.2286 49.5899 18.6339 49.5899C19.1496 49.6021 19.432 49.8474 19.4443 50.2643C19.4443 50.6812 19.1496 50.9632 18.6584 50.9632C15.9938 50.9632 13.3291 50.9755 10.6644 50.9632C9.36278 50.951 8.23305 50.0313 8.0857 48.7315C7.92606 47.2846 7.93834 45.8255 8.55232 44.4521C9.32594 42.6987 10.6153 41.4847 12.4327 40.8471C12.9361 40.6754 13.4519 40.5283 13.9676 40.3812C14.3606 40.2708 14.7167 40.4547 14.8272 40.7981C14.95 41.1659 14.7781 41.546 14.3851 41.6809C13.9676 41.8281 13.5378 41.9384 13.1081 42.0733C10.8977 42.7477 9.43645 44.6851 9.41189 47.0026C9.41189 47.444 9.39961 47.8855 9.41189 48.3392C9.43645 49.0258 9.91536 49.5776 10.5785 49.5899C12.3713 49.6144 14.1641 49.6021 16.006 49.6021C16.006 49.4059 16.006 49.222 16.006 49.0504C16.006 47.8119 16.006 46.5734 16.006 45.335C16.006 44.7464 16.2393 44.4521 16.6937 44.4521C17.1235 44.4521 17.3568 44.7464 17.3814 45.2982C17.3814 45.4208 17.3936 45.5434 17.4059 45.6906C23.3492 45.6906 29.268 45.6906 35.2482 45.6906C35.2604 45.5434 35.2727 45.4086 35.285 45.2614C35.3096 44.7341 35.5306 44.4644 35.9604 44.4521C36.4024 44.4521 36.648 44.7342 36.6603 45.2859C36.6726 46.2301 36.6603 47.1865 36.6603 48.1307C36.6603 48.6089 36.6603 49.0749 36.6603 49.5776C36.8077 49.5899 36.9305 49.6144 37.041 49.6144C38.3549 49.6144 39.6811 49.6144 40.995 49.6144C41.916 49.6144 42.444 49.1239 42.4194 48.2043C42.3949 47.3214 42.4194 46.414 42.1984 45.568C41.7563 43.9003 40.6512 42.7232 38.9934 42.1837C36.7954 41.4725 34.5728 40.8349 32.3625 40.1727C30.3363 39.5719 29.4645 38.3947 29.4645 36.2734C29.4645 36.0895 29.4645 35.9056 29.4645 35.6603C27.0822 36.58 24.7491 36.5554 22.3791 35.5377C22.3791 35.9546 22.3791 36.3102 22.3791 36.6781C22.3669 38.2598 21.4213 39.5596 19.9355 40.0378C19.211 40.2708 18.4742 40.4793 17.7375 40.7C17.2463 40.8471 16.8779 40.6877 16.7551 40.2953C16.62 39.8784 16.8288 39.5474 17.3445 39.3757C18.0199 39.1672 18.6953 38.971 19.3706 38.7749C20.4144 38.456 20.9916 37.6958 20.9916 36.6045C20.9916 36.0404 21.1512 35.3906 20.9424 34.9246C20.746 34.4954 20.132 34.2502 19.7022 33.9314C17.0989 31.9572 15.4412 29.3945 14.729 26.1941C14.7044 26.0837 14.6553 25.9611 14.6307 25.8508C14.1027 25.8262 13.5992 25.8385 13.1081 25.7527C11.831 25.5565 10.9223 24.5142 10.8732 23.2145C10.8486 22.6995 10.8486 22.1722 10.8732 21.6572C10.91 20.7498 11.3152 20.0386 12.0643 19.5481C12.2976 19.3887 12.3713 19.2293 12.3713 18.9596C12.3222 17.1938 12.4204 15.4526 12.9116 13.736C14.3974 8.53692 19.1005 4.6131 24.5035 4.07357C24.6263 4.06131 24.7368 4.02452 24.8596 4C25.5841 4 26.3209 4 27.0577 4ZM31.2205 6.64858C28.5435 5.07905 23.6808 4.64988 19.6408 7.11453C15.1465 9.86121 13.3291 14.5821 13.7834 19.0454C14.0536 19.0454 14.3237 19.0454 14.5816 19.0454C14.6062 19.0086 14.6307 18.9841 14.643 18.9596C14.6676 18.8737 14.7044 18.7879 14.7167 18.6898C15.4166 15.7224 17.0252 13.3804 19.5671 11.7005C21.0529 10.7318 22.5879 9.82442 24.1474 8.99061C25.2157 8.4143 26.3577 7.93608 27.512 7.55596C28.74 7.1881 30.0171 6.95513 31.2205 6.64858ZM40.3196 33.4532C40.2091 33.3306 40.1109 33.2202 40.0004 33.1098C38.49 31.6016 36.9673 30.0811 35.4569 28.5729C35.1499 28.2664 34.8552 27.9598 34.5482 27.6655C34.2412 27.3835 33.9465 27.4571 33.8851 27.8617C33.8237 28.2909 33.8114 28.7446 33.8237 29.1738C33.8728 30.5471 35.8376 32.5335 37.1147 32.7052C38.0847 32.8278 38.8829 33.257 39.5092 34.005C39.546 34.0417 39.6074 34.0785 39.6811 34.1276C39.8898 33.9191 40.0863 33.7107 40.3196 33.4532ZM14.422 23.1654C13.8448 23.1164 13.1449 23.239 13.1326 22.4787C13.1081 21.6449 13.8571 21.8043 14.422 21.7308C14.422 21.3016 14.422 20.8969 14.422 20.4555C14.1273 20.4555 13.8325 20.4433 13.5501 20.4555C12.7519 20.5168 12.273 21.0196 12.2485 21.8289C12.2362 22.2825 12.2362 22.7485 12.2608 23.2022C12.2976 23.8153 12.6783 24.2812 13.28 24.3916C13.6606 24.4652 14.0536 24.4406 14.4342 24.4652C14.422 23.9992 14.422 23.6068 14.422 23.1654ZM37.4462 21.7308C37.962 21.8289 38.711 21.6204 38.7233 22.442C38.7356 23.288 37.9742 23.0918 37.4585 23.1899C37.4585 23.6191 37.4585 24.0237 37.4585 24.4652C37.7164 24.4652 37.9374 24.4652 38.1707 24.4652C39.0794 24.4529 39.632 23.9134 39.6443 23.006C39.6443 22.7117 39.6197 22.4297 39.6443 22.1354C39.7425 21.0686 39.0548 20.1612 37.4462 20.5414C37.4462 20.9215 37.4462 21.3139 37.4462 21.7308ZM40.6266 35.1331C42.0265 36.5309 43.4018 37.9043 44.7771 39.2653C44.9982 39.4738 45.2438 39.4983 45.4648 39.2776C45.6858 39.0569 45.6735 38.8116 45.4771 38.5909C45.4034 38.4928 45.3052 38.4193 45.2192 38.3334C44.1017 37.2176 42.9966 36.114 41.8791 34.9982C41.695 34.8142 41.5476 34.6181 41.388 34.4341C41.0933 34.7162 40.8722 34.9123 40.6266 35.1331Z" fill="#777777"/>
        <path d="M20.7094 24.1096C19.8744 24.1219 19.1253 23.8521 18.4377 23.3739C18.057 23.1041 17.971 22.724 18.1921 22.3929C18.4131 22.0618 18.7815 21.976 19.1622 22.2212C20.1937 22.8957 21.2006 22.9079 22.2443 22.2212C22.6127 21.976 22.9934 22.0618 23.2144 22.3807C23.4355 22.7117 23.3495 23.1041 22.9811 23.3739C22.3057 23.8521 21.5567 24.1096 20.7094 24.1096Z" fill="#777777"/>
        <path d="M31.1348 24.1096C30.312 24.1096 29.5753 23.8644 28.9122 23.3984C28.5192 23.1286 28.4087 22.7608 28.6297 22.4175C28.8508 22.0619 29.2437 21.976 29.6612 22.2458C30.6682 22.8957 31.6505 22.8834 32.6575 22.2335C33.0504 21.976 33.4311 22.0496 33.6644 22.3929C33.8977 22.7363 33.7995 23.1286 33.3819 23.4107C32.6943 23.8644 31.9575 24.1219 31.1348 24.1096Z" fill="#777777"/>
        <path d="M25.9283 31.9082C25.0933 31.9204 24.3442 31.6507 23.6565 31.1725C23.2759 30.9027 23.1899 30.5226 23.411 30.1915C23.6197 29.8727 24.0127 29.7746 24.381 30.0198C25.4125 30.6942 26.4195 30.7065 27.4632 30.0321C27.8562 29.7746 28.2368 29.8727 28.4579 30.2283C28.6543 30.5471 28.5684 30.9272 28.2 31.1847C27.5246 31.6629 26.7756 31.9204 25.9283 31.9082Z" fill="#777777"/>
        <path d="M22.5145 29.0511C22.5145 29.6152 21.7041 30.4613 21.2866 30.3877C21.0778 30.3509 20.8077 30.1915 20.7217 30.0198C20.6357 29.8359 20.648 29.5171 20.7585 29.3454C20.9304 29.0634 21.1883 28.8059 21.4708 28.6465C21.6427 28.5361 21.9619 28.5361 22.1461 28.622C22.3303 28.6955 22.4408 28.953 22.5145 29.0511Z" fill="#777777"/>
        <path d="M26.6159 20.6394C26.6159 20.7253 26.6159 20.8234 26.6159 20.9092C26.6036 21.3997 26.3334 21.7062 25.9282 21.7062C25.5352 21.7062 25.2651 21.3997 25.2405 20.946C25.2283 20.7498 25.2283 20.5536 25.2405 20.3451C25.2651 19.8792 25.5352 19.5972 25.9405 19.5972C26.3457 19.5972 26.6036 19.8915 26.6159 20.3574C26.6159 20.4555 26.6159 20.5536 26.6159 20.6394Z" fill="#777777"/>
        <path d="M24.8967 26.7091C24.8721 27.2609 24.1231 28.0456 23.7301 28.0211C23.5214 28.0089 23.2266 27.8617 23.1407 27.6901C23.0425 27.5061 23.0425 27.1628 23.153 26.9789C23.3126 26.6968 23.5705 26.4393 23.8529 26.2799C24.0371 26.1696 24.3687 26.1696 24.5651 26.2677C24.737 26.3412 24.823 26.611 24.8967 26.7091Z" fill="#777777"/>
        <path d="M28.863 27.3467C28.863 27.8617 28.2736 28.2173 27.8438 27.923C27.5491 27.7146 27.2789 27.4448 27.0702 27.1505C26.7755 26.7214 27.1193 26.1328 27.635 26.1205C28.0648 26.1205 28.863 26.9175 28.863 27.3467Z" fill="#777777"/>
        <path d="M26.6159 13.6502C26.6159 13.736 26.6159 13.8341 26.6159 13.9199C26.6036 14.4104 26.3334 14.7292 25.9282 14.717C25.5352 14.717 25.2651 14.4104 25.2405 13.9445C25.2283 13.7483 25.2283 13.5521 25.2405 13.3436C25.2651 12.8777 25.5352 12.5956 25.9405 12.5956C26.3457 12.5956 26.6036 12.8777 26.6159 13.3559C26.6159 13.4662 26.6159 13.5643 26.6159 13.6502Z" fill="#777777"/>
        <path d="M26.6036 17.1203C26.6036 17.2552 26.6158 17.4023 26.6036 17.5372C26.5667 17.905 26.358 18.1258 25.9896 18.1503C25.6212 18.1871 25.3388 17.9909 25.2774 17.6353C25.216 17.2919 25.216 16.9364 25.2774 16.593C25.3265 16.2374 25.6089 16.029 25.9773 16.0535C26.358 16.078 26.5913 16.311 26.6158 16.7034C26.6158 16.8505 26.6036 16.9854 26.6036 17.1203Z" fill="#777777"/>
        <path d="M31.233 29.8849C31.1594 29.9708 31.0488 30.2405 30.8646 30.3018C30.6559 30.3754 30.3489 30.3509 30.1524 30.2405C29.8946 30.0934 29.6612 29.8604 29.5139 29.6029C29.4034 29.4067 29.3788 29.0879 29.4648 28.8917C29.5507 28.7201 29.8332 28.5607 30.0419 28.5361C30.4594 28.4748 31.233 29.2964 31.233 29.8849Z" fill="#777777"/>
        <path d="M26.6159 24.2077C26.6159 24.9311 26.4194 25.2377 25.9528 25.2499C25.4739 25.2622 25.2406 24.9188 25.2406 24.1954C25.2406 24.085 25.2406 23.9869 25.2406 23.8766C25.2774 23.4229 25.5599 23.1409 25.9651 23.1531C26.358 23.1654 26.5914 23.4351 26.6159 23.8888C26.6159 23.9869 26.6159 24.0973 26.6159 24.2077Z" fill="#777777"/>
    </g>
    <defs>
        <clipPath id="clip0_1693_10">
            <rect width="39" height="47" fill="white" transform="translate(8 4)"/>
        </clipPath>
    </defs>
</svg>
