<svg width="50" height="61" viewBox="0 0 50 61" fill="none" xmlns="http://www.w3.org/2000/svg">
    <path d="M29.6833 8.95573C32.6614 12.3149 31.2097 16.9314 33.1396 23.5377C35.8507 32.818 56.7384 38.096 46.547 50.6704C41.7274 56.2799 34.237 59.7778 26.5069 60.5475C7.4037 62.4497 4.21922 41.9302 3.65683 30.5329C3.02988 17.8295 -6.68078 5.00055 13.4544 0.844587C21.8217 -0.882438 26.7051 5.59658 29.6833 8.95573Z" fill="#D9EBFE"/>
    <g clip-path="url(#clip0_1693_10)">
        <path d="M32.8192 39.0278C32.4578 36.5073 31.4638 34.2343 30.0405 32.1413C29.8824 31.9163 29.8824 31.725 29.9163 31.4437C29.9841 30.926 30.0405 30.3522 29.905 29.8571C29.4419 28.0454 28.0074 26.9652 26.121 26.9314C25.4659 26.9202 24.8107 26.9314 24.1104 26.9314C24.1669 26.8189 24.1895 26.7626 24.2234 26.7176C25.3755 24.6922 25.0367 22.5092 23.2859 20.9451C20.4959 18.4358 17.6946 15.9378 14.8933 13.4397C14.7804 13.3385 14.6674 13.2372 14.5432 13.1697C14.1591 12.9446 13.7186 13.0009 13.4362 13.3047C13.1425 13.6198 13.1087 14.1036 13.4023 14.4525C13.5605 14.6438 13.7525 14.8125 13.9445 14.9926C16.6215 17.3893 19.2873 19.7749 21.9643 22.1716C22.1563 22.3404 22.3483 22.5205 22.4952 22.7118C23.1277 23.5219 23.2859 24.4221 22.9018 25.3673C22.5065 26.3238 21.7384 26.8302 20.7105 26.9089C20.5637 26.9202 20.4055 26.9202 20.2587 26.9427C18.0674 27.314 15.876 27.6853 13.6847 28.0567C12.9053 28.1917 12.126 28.3155 11.3014 28.4505C11.3014 28.2142 11.3014 28.0454 11.3014 27.8654C11.3014 24.9622 11.3014 22.0591 11.3014 19.1447C11.3014 18.9197 11.2901 18.6946 11.2449 18.4808C11.132 18.0082 10.6011 17.7494 10.138 17.8957C9.68614 18.042 9.50541 18.3796 9.50541 18.8184C9.49412 19.5386 9.50541 20.2587 9.50541 20.9789C9.50541 23.3869 9.49412 25.8062 9.50541 28.2142C9.51671 29.5757 10.4655 30.4197 11.7306 30.2059C13.007 29.9921 14.2721 29.767 15.5485 29.5532C17.2202 29.2719 18.8806 28.8668 20.5749 28.7431C22.4839 28.5968 24.4267 28.6868 26.3469 28.7206C27.2844 28.7318 28.0638 29.452 28.2107 30.3297C28.3462 31.1286 28.0525 31.4887 27.228 31.4887C25.5111 31.4887 23.7942 31.5224 22.0885 31.4774C21.0155 31.4437 20.0328 31.6575 19.0388 32.0738C16.1923 33.2778 13.3459 34.4818 10.4542 35.5733C8.25162 36.406 6.21844 35.9221 4.50153 34.2905C3.28162 33.1203 2.80721 31.6575 2.80721 29.9921C2.81851 25.6937 2.80721 21.3952 2.80721 17.0968C2.80721 16.8717 2.79591 16.6467 2.75073 16.4329C2.66037 16.0503 2.27632 15.769 1.89228 15.7802C1.49694 15.7915 1.13548 16.0841 1.05642 16.4666C1.01123 16.6354 0.999939 16.8042 0.999939 16.9618C0.999939 21.339 0.999939 25.7162 0.999939 30.0821C0.999939 32.5576 1.86969 34.6731 3.89157 36.1134C4.72744 36.7211 4.8291 37.3399 4.85169 38.2176C4.88557 40.108 4.65966 41.9309 4.11748 43.7426C3.72214 45.0816 3.47364 46.4882 3.31551 47.8722C2.92016 51.3042 3.28162 54.68 4.21914 57.9994C4.3321 58.427 4.52412 58.7646 4.93075 58.9784C5.11148 58.9784 5.29221 58.9784 5.47294 58.9784C6.10548 58.4945 6.18455 58.292 5.99253 57.5831C5.552 55.974 5.21314 54.3536 5.0776 52.6995C4.84039 49.8639 5.00982 47.0621 5.82309 44.339C6.41046 42.3923 6.78321 40.4569 6.64766 38.4202C6.62507 38.1276 6.64766 37.8238 6.64766 37.4862C8.69214 38.0151 10.5446 37.5425 12.3857 36.7548C15.0741 35.6071 17.7963 34.5268 20.5072 33.4241C20.7331 33.3341 20.9929 33.2778 21.2414 33.2778C23.2407 33.2666 25.24 33.2778 27.2393 33.2666C27.5668 33.2666 27.9057 33.2328 28.222 33.1428C28.4818 33.064 28.606 33.1203 28.7303 33.3341C29.1482 34.088 29.5887 34.8419 29.9954 35.6071C30.0744 35.7646 30.0857 35.9784 30.0518 36.1584C29.8259 37.2499 28.9901 37.9251 27.7137 38.0151C25.7596 38.1501 24.4719 39.1291 23.8167 40.952C23.7716 41.0645 23.6473 41.2333 23.5457 41.2445C22.6985 41.3571 22.0998 41.8522 21.5689 42.4711C21.4334 42.6286 21.2075 42.7186 21.0268 42.8424C21.0042 42.8086 20.9816 42.7749 20.959 42.7411C21.0155 42.6511 21.0719 42.5723 21.1284 42.4823C22.3144 40.8507 22.1563 38.6452 20.7444 37.1711C19.4002 35.7646 17.096 35.5283 15.4581 36.6198C13.7977 37.7225 13.1651 39.928 13.9671 41.7509C14.0462 41.9422 14.0801 42.1785 14.0688 42.3923C13.9558 43.8664 14.0801 45.2954 14.7352 46.6457C15.5824 48.3898 17.0508 49.3801 18.8354 49.9764C19.8972 50.3365 20.9929 50.5391 22.1111 50.3815C23.5569 50.179 24.6978 49.4813 25.4207 48.2886C25.7483 48.5811 26.0306 48.975 26.4034 49.1325C27.5442 49.6051 28.9788 48.6824 29.2273 47.3659C29.5661 45.5767 28.0864 43.4163 26.2227 42.9887C25.8273 42.8986 25.4207 42.291 25.4546 41.8634C25.5562 40.8282 26.4486 39.883 27.4765 39.8267C28.7867 39.7592 29.9502 39.4104 30.8538 38.4089C30.899 38.4652 30.9216 38.4764 30.9329 38.4989C30.9555 38.5665 30.9781 38.6452 30.9894 38.7127C31.4412 41.222 31.2717 43.6863 30.402 46.0943C29.7356 47.9397 28.719 49.5713 27.3861 51.0004C26.1436 52.3395 25.5336 53.9148 25.5562 55.7377C25.5675 56.4128 25.5788 57.088 25.5562 57.7631C25.5336 58.3145 25.7144 58.7196 26.2227 58.9559C26.3695 58.9559 26.5276 58.9559 26.6745 58.9559C27.1941 58.7308 27.3748 58.3145 27.3635 57.7631C27.3522 57.1442 27.3748 56.5366 27.3522 55.9177C27.2957 54.4549 27.8266 53.2171 28.7754 52.1144C29.5322 51.2255 30.2551 50.3028 30.8538 49.3013C32.7176 46.1506 33.3501 42.6961 32.8192 39.0278ZM17.7172 37.7788C19.0275 37.7675 20.0779 38.8028 20.0892 40.0968C20.1005 41.3908 19.0501 42.4485 17.7624 42.4598C16.486 42.4711 15.4016 41.4133 15.3903 40.1305C15.3677 38.8365 16.4182 37.79 17.7172 37.7788ZM25.929 44.8341C26.6406 45.0591 27.4087 46.0493 27.4426 46.8032C27.4539 47.017 27.3296 47.2308 27.2731 47.3884C26.9004 47.0733 26.6293 46.8032 26.313 46.5782C25.5449 46.0381 24.5735 46.1281 24.1556 46.9495C23.1842 48.8399 21.2753 48.9187 19.5471 48.3673C18.2594 47.9622 17.1072 47.3434 16.4295 46.0943C16.0568 45.3967 15.8422 44.6653 15.8196 43.8439C16.2601 43.9564 16.6554 44.1027 17.0734 44.1702C17.4235 44.2264 17.785 44.1927 18.1464 44.2152C18.361 44.2264 18.587 44.2827 18.8016 44.3165C19.5132 44.429 20.2135 44.5978 20.9251 44.6203C21.7045 44.654 22.3935 44.339 22.8905 43.7088C23.0148 43.54 23.1503 43.36 23.3197 43.2587C23.4666 43.1687 23.7151 43.0787 23.8393 43.1462C23.9523 43.2137 24.0314 43.5063 23.9749 43.6413C23.8506 43.9451 23.6925 44.3052 23.444 44.4852C22.947 44.8566 22.3709 45.1379 21.8174 45.4192C21.4899 45.588 21.1058 45.6555 20.767 45.813C20.349 46.0043 20.1683 46.4544 20.3039 46.8595C20.4394 47.2871 20.8912 47.5909 21.3317 47.4671C22.9244 47.017 24.4606 46.4432 25.3981 44.9578C25.5449 44.7215 25.7257 44.7666 25.929 44.8341Z" fill="#007AC7"/>
        <path d="M1.90418 14.7894C2.38989 14.7894 2.78523 14.3843 2.78523 13.9004C2.78523 13.4053 2.37859 13.0002 1.90418 13.0002C1.41848 13.0002 1.01184 13.4053 1.01184 13.8892C1.01184 14.373 1.41848 14.7894 1.90418 14.7894Z" fill="#007AC7"/>
    </g>
    <defs>
        <clipPath id="clip0_1693_10">
            <rect width="32" height="46" fill="white" transform="translate(0.999939 13.0002)"/>
        </clipPath>
    </defs>
</svg>
