<svg width="59" height="63" viewBox="0 0 59 63" fill="none" xmlns="http://www.w3.org/2000/svg">
    <path d="M15.011 21.1153C15.0268 9.38797 24.6505 -0.0155932 36.6212 -0.000100163C48.5131 0.0153929 58.0424 9.49642 58.0109 21.3167C57.9794 32.8736 48.4344 42.0308 36.6212 41.9998C24.7293 41.9843 14.9953 32.7962 15.011 21.1153Z" fill="#D9EBFE"/>
    <path d="M7.93534 16.8006C6.23255 20.3914 8.85497 24.2074 9.02102 30.4769C9.25429 39.284 -7.92803 48.1967 4.79736 57.3322C10.7188 61.3524 18.4254 62.9543 25.5646 62.0796C43.2077 59.9178 40.1769 41.0115 37.4138 30.7538C34.3341 19.3204 39.3486 5.94232 20.1359 6.30632C12.152 6.45758 9.63813 13.2097 7.93534 16.8006Z" fill="#D9EBFE"/>
    <path d="M3 30.9944C3 24.671 3 18.3365 3 12.0019C3 11.1781 3.17967 11 4.01065 11C13.1964 11 22.3933 11 31.579 11C32.41 11 32.5897 11.1781 32.5897 12.0019C32.5897 24.671 32.5897 37.3401 32.5897 49.9981C32.5897 50.8219 32.41 51 31.579 51C22.3933 51 13.1964 51 4.01065 51C3.17967 51 3 50.8219 3 49.9981C3 43.6635 3 37.329 3 30.9944ZM31.2197 17.6908C22.2473 17.6908 13.3087 17.6908 4.37 17.6908C4.37 28.3671 4.37 38.9989 4.37 49.6418C13.3311 49.6418 22.2698 49.6418 31.2197 49.6418C31.2197 38.9878 31.2197 28.356 31.2197 17.6908ZM31.2197 12.3582C22.2473 12.3582 13.2974 12.3582 4.35877 12.3582C4.35877 13.683 4.35877 14.9855 4.35877 16.3103C13.3199 16.3103 22.2586 16.3103 31.2197 16.3103C31.2197 14.9855 31.2197 13.6941 31.2197 12.3582Z" fill="#007AC7"/>
    <path d="M40.0234 17.6685C40.4277 17.6685 40.8544 17.6574 41.2699 17.6685C41.7191 17.6797 41.9998 17.9246 41.9998 18.3588C42.011 20.9972 41.9998 23.6357 41.9998 26.3076C41.5618 26.3076 41.1351 26.3076 40.6635 26.3076C40.6635 23.8917 40.6635 21.4648 40.6635 19.0267C40.4277 19.0267 40.2368 19.0267 39.9897 19.0267C39.9897 19.1715 39.9897 19.3162 39.9897 19.4609C39.9897 21.2087 39.9897 22.9566 39.9897 24.7156C39.9897 25.3724 39.9223 25.4726 39.3159 25.7286C39.3159 25.8845 39.3159 26.0515 39.3159 26.2185C39.3159 31.2616 39.3159 36.3048 39.3159 41.3479C39.3159 42.1717 39.1363 42.3499 38.3053 42.3499C37.5866 42.3499 36.8791 42.3499 36.1605 42.3499C35.4979 42.3499 35.2733 42.1272 35.2733 41.4704C35.2733 36.3827 35.2733 31.3062 35.2733 26.2185C35.2733 26.0515 35.2733 25.8845 35.2733 25.7064C34.7119 25.5951 34.5883 25.2277 34.5996 24.7156C34.6108 22.4334 34.5996 20.1623 34.6108 17.8801C34.6108 16.4885 35.4305 15.6758 36.823 15.6758C37.07 15.6758 37.3283 15.6758 37.5754 15.6758C39.0689 15.6646 39.7314 16.199 40.0234 17.6685ZM38.6309 24.3148C38.6309 22.066 38.6422 19.8394 38.6197 17.6129C38.6197 17.2344 38.339 17.0228 37.9459 17.0117C37.5866 17.0006 37.216 17.0117 36.8567 17.0117C36.1605 17.0117 35.9471 17.2232 35.9471 17.9023C35.9471 19.9173 35.9471 21.9212 35.9471 23.9363C35.9471 24.0699 35.9471 24.2035 35.9471 24.3259C36.8791 24.3148 37.7326 24.3148 38.6309 24.3148ZM37.9347 38.3198C37.9347 34.0893 37.9347 29.8923 37.9347 25.6953C37.4855 25.6953 37.07 25.6953 36.6433 25.6953C36.6433 29.9146 36.6433 34.1116 36.6433 38.3198C37.0813 38.3198 37.4968 38.3198 37.9347 38.3198ZM37.9459 39.6891C37.4855 39.6891 37.07 39.6891 36.6433 39.6891C36.6433 40.1344 36.6433 40.5464 36.6433 40.9805C37.0925 40.9805 37.5192 40.9805 37.9459 40.9805C37.9459 40.5352 37.9459 40.1233 37.9459 39.6891Z" fill="#007AC7"/>
    <path d="M12.4329 24.9716C12.4329 24.5374 12.4329 24.1255 12.4329 23.6913C18.2497 23.6913 24.0554 23.6913 29.8835 23.6913C29.8835 24.1255 29.8835 24.5374 29.8835 24.9716C24.0778 24.9716 18.2722 24.9716 12.4329 24.9716Z" fill="#007AC7"/>
    <path d="M12.4329 31.6401C12.4329 31.206 12.4329 30.794 12.4329 30.3599C18.2385 30.3599 24.0329 30.3599 29.861 30.3599C29.861 30.7718 29.861 31.1948 29.861 31.6401C24.0778 31.6401 18.2722 31.6401 12.4329 31.6401Z" fill="#007AC7"/>
    <path d="M29.8835 37.0284C29.8835 37.4737 29.8835 37.8856 29.8835 38.3087C24.0666 38.3087 18.2834 38.3087 12.4553 38.3087C12.4553 37.8968 12.4553 37.4737 12.4553 37.0284C18.2385 37.0284 24.0442 37.0284 29.8835 37.0284Z" fill="#007AC7"/>
    <path d="M29.8835 43.6969C29.8835 44.1422 29.8835 44.5541 29.8835 44.9772C24.0666 44.9772 18.2834 44.9772 12.4553 44.9772C12.4553 44.5653 12.4553 44.1422 12.4553 43.6969C18.2385 43.6969 24.0442 43.6969 29.8835 43.6969Z" fill="#007AC7"/>
    <path d="M11.0739 22.3443C11.0739 22.9677 11.0739 23.5912 11.0739 24.2146C11.0626 24.7378 10.8268 24.9939 10.3103 24.9939C9.0301 25.005 7.76117 25.005 6.48101 24.9939C5.95322 24.9939 5.69495 24.749 5.69495 24.2369C5.68372 22.9677 5.68372 21.7097 5.69495 20.4406C5.69495 19.9174 5.94199 19.6613 6.45855 19.6613C7.73871 19.6502 9.00764 19.6502 10.2878 19.6613C10.8268 19.6613 11.0739 19.9062 11.0739 20.4629C11.0739 21.0974 11.0739 21.7209 11.0739 22.3443ZM7.06494 21.0195C7.06494 21.9213 7.06494 22.7785 7.06494 23.6357C7.9633 23.6357 8.8392 23.6357 9.70387 23.6357C9.70387 22.7451 9.70387 21.899 9.70387 21.0195C8.81674 21.0195 7.95207 21.0195 7.06494 21.0195Z" fill="#007AC7"/>
    <path d="M8.37891 26.3298C9.00777 26.3298 9.63662 26.3298 10.2655 26.3298C10.8157 26.3298 11.0628 26.5747 11.0628 27.1202C11.0628 28.3671 11.0628 29.6251 11.0628 30.872C11.0628 31.4175 10.8157 31.6624 10.2655 31.6624C9.00776 31.6624 7.73883 31.6624 6.48113 31.6624C5.93089 31.6624 5.68384 31.4175 5.68384 30.872C5.68384 29.6251 5.68384 28.3671 5.68384 27.1202C5.68384 26.5747 5.93089 26.3298 6.48113 26.3298C7.10998 26.3298 7.75006 26.3298 8.37891 26.3298ZM7.05383 30.3042C7.96342 30.3042 8.82809 30.3042 9.69276 30.3042C9.69276 29.4136 9.69276 28.5452 9.69276 27.688C8.7944 27.688 7.94096 27.688 7.05383 27.688C7.05383 28.5675 7.05383 29.4136 7.05383 30.3042Z" fill="#007AC7"/>
    <path d="M8.334 38.3309C7.71637 38.3309 7.09875 38.3309 6.48113 38.3309C5.93089 38.3309 5.68384 38.086 5.68384 37.5405C5.68384 36.2936 5.68384 35.0356 5.68384 33.7887C5.68384 33.2432 5.93089 32.9983 6.48113 32.9983C7.73883 32.9983 9.00776 32.9983 10.2655 32.9983C10.8157 32.9983 11.0628 33.2432 11.0628 33.7887C11.0628 35.0356 11.0628 36.2936 11.0628 37.5405C11.0628 38.086 10.8157 38.3309 10.2655 38.3309C9.62539 38.342 8.98531 38.3309 8.334 38.3309ZM7.05383 36.9727C7.95219 36.9727 8.82809 36.9727 9.69276 36.9727C9.69276 36.0821 9.69276 35.2137 9.69276 34.3565C8.7944 34.3565 7.94096 34.3565 7.05383 34.3565C7.05383 35.2249 7.05383 36.0821 7.05383 36.9727Z" fill="#007AC7"/>
    <path d="M8.39027 39.6669C9.01912 39.6669 9.64797 39.6669 10.2768 39.6669C10.8046 39.6669 11.0629 39.9118 11.0629 40.4239C11.0741 41.693 11.0741 42.951 11.0629 44.2202C11.0629 44.7434 10.8158 44.9995 10.2993 44.9995C9.01912 45.0106 7.75019 45.0106 6.47002 44.9995C5.94224 44.9995 5.69519 44.7546 5.68396 44.2424C5.67273 42.9733 5.67273 41.7153 5.68396 40.4462C5.68396 39.9118 5.93101 39.678 6.49248 39.6669C7.13256 39.6669 7.76141 39.6669 8.39027 39.6669ZM7.06519 41.0139C7.06519 41.9157 7.06519 42.7729 7.06519 43.6301C7.96355 43.6301 8.83945 43.6301 9.70412 43.6301C9.70412 42.7395 9.70412 41.8823 9.70412 41.0139C8.81699 41.0139 7.95232 41.0139 7.06519 41.0139Z" fill="#007AC7"/>
</svg>
