<svg width="59" height="58" viewBox="0 0 59 58" fill="none" xmlns="http://www.w3.org/2000/svg">
    <path d="M57.999 7.17804C57.999 7.8491 57.999 8.52017 57.999 9.19124C57.9631 9.26314 57.9271 9.33504 57.9151 9.40694C57.3998 12.6904 55.0631 15.3147 51.8276 16.0817C50.797 16.3213 49.7185 16.3094 48.664 16.4532C43.8107 17.1362 40.6591 21.9895 41.9892 26.6989C42.9838 30.222 46.0875 32.5708 49.7544 32.6547C53.3015 32.7386 55.866 34.4042 57.3519 37.6397C57.6635 38.3228 57.7953 39.0897 58.011 39.8087C58.011 40.4798 58.011 41.1509 58.011 41.8219C57.975 41.9058 57.9391 41.9897 57.9151 42.0856C57.0763 47.8256 50.4974 50.8694 45.5722 47.7897C43.0318 46.2079 41.7376 43.8471 41.6657 40.8633C41.6297 38.9819 41.4739 37.1125 41.0305 35.279C39.4008 28.6283 35.674 23.4874 29.862 19.8924C26.6146 17.8792 23.0675 16.7408 19.2568 16.4532C18.1303 16.3693 16.9799 16.4052 15.8775 16.2375C12.1626 15.6503 9.27461 12.4986 9.03495 8.86769C8.78329 4.93714 11.132 1.48594 14.8229 0.359499C15.2783 0.227682 15.7456 0.131815 16.201 0.0239649C16.8721 0.0239649 17.5431 0.023965 18.2142 0.023965C18.2861 0.0599151 18.358 0.0958652 18.4299 0.107849C21.7134 0.623133 24.3377 2.97187 25.1046 6.1954C25.3443 7.22597 25.3323 8.30447 25.4761 9.35901C26.0993 13.9846 30.6649 17.1602 35.2066 16.1656C38.9934 15.3267 41.6057 12.1152 41.6657 8.22059C41.7016 4.37393 44.1582 1.21032 47.8012 0.239667C48.1367 0.155783 48.4722 0.0718998 48.8078 -4.02286e-07C49.4788 -3.72953e-07 50.1499 -3.43619e-07 50.821 -3.14286e-07C50.8929 0.0239664 50.9648 0.0718999 51.0367 0.0838832C54.3561 0.671068 56.549 2.57642 57.6395 5.75202C57.7953 6.21937 57.8792 6.6987 57.999 7.17804Z" fill="#F3F3F3"/>
    <path d="M43 36.8846C42.9842 48.6119 33.3604 58.0155 21.3898 58C9.49786 57.9845 -0.0314267 48.5035 7.56078e-05 36.6832C0.0315779 25.1262 9.57661 15.9691 21.3898 16.0001C33.2817 16.0156 43.0157 25.2037 43 36.8846Z" fill="#F3F3F3"/>
    <path d="M56 29.1406C55.7464 30.1639 55.6243 31.2434 55.2297 32.2104C53.5577 36.3597 50.4767 38.7911 46.0431 39.4389C45.6673 39.4952 45.5546 39.6078 45.5546 39.9834C45.5734 42.856 45.564 45.7286 45.564 48.6012C45.564 48.8359 45.5546 49.0706 45.4982 49.2959C45.4043 49.6996 45.0192 49.9812 44.5965 49.9718C44.1832 49.9624 43.798 49.6714 43.7229 49.2584C43.6853 49.0425 43.6759 48.8265 43.6759 48.6106C43.6759 45.7849 43.6759 42.9592 43.6759 40.1336C43.6759 39.9458 43.6759 39.7581 43.6759 39.6172C42.4172 39.2981 41.2055 38.9883 39.928 38.6597C39.928 38.7911 39.928 38.9695 39.928 39.1479C39.928 42.3021 39.928 45.4564 39.928 48.6106C39.928 49.709 39.6462 49.9906 38.5378 49.9906C28.825 49.9906 19.1029 49.9906 9.39022 49.9906C8.2818 50 8 49.7184 8 48.62C8 34.8671 8 21.1141 8 7.36121C8 6.28163 8.2818 6 9.36204 6C19.0935 6 28.825 6 38.5566 6C39.6462 6 39.928 6.28163 39.928 7.39876C39.928 10.6469 39.928 13.895 39.928 17.1432C39.928 17.3309 39.928 17.5093 39.928 17.7721C40.1159 17.7158 40.2568 17.6783 40.3883 17.6219C47.0294 15.0779 54.0838 18.7954 55.7182 25.7141C55.8309 26.1929 55.9061 26.6904 56 27.1786C56 27.8263 56 28.4835 56 29.1406ZM9.90685 7.89631C9.90685 21.3301 9.90685 34.7075 9.90685 48.0943C19.2908 48.0943 28.6466 48.0943 38.0117 48.0943C38.0211 47.9723 38.0399 47.8878 38.0399 47.7939C38.0399 44.4519 38.0493 41.1099 38.0305 37.7679C38.0305 37.5989 37.9084 37.383 37.7675 37.2797C36.7624 36.5005 35.8607 35.6087 35.1843 34.5291C34.7335 33.8063 34.3483 33.0365 33.9914 32.2573C33.7566 31.741 34.0008 31.2153 34.4798 31.0087C34.9495 30.8116 35.4192 30.9994 35.6822 31.5063C35.7949 31.7222 35.8888 31.9569 35.9922 32.1822C37.8896 36.463 43.0935 38.7254 47.5366 37.2046C52.7875 35.3928 55.38 29.9573 53.4638 24.7472C51.51 19.4431 44.8877 17.0493 39.975 19.875C38.0117 21.0109 36.6121 22.6162 35.7386 24.7096C35.4755 25.3292 34.9777 25.5545 34.4704 25.3386C33.9444 25.1133 33.7847 24.5876 34.0384 23.9586C34.8274 22.0154 36.0391 20.4007 37.7018 19.1427C37.9554 18.955 38.0399 18.7485 38.0399 18.4387C38.0305 15.0779 38.0305 11.7265 38.0305 8.36569C38.0305 8.21549 38.0305 8.06529 38.0305 7.89631C28.6466 7.89631 19.2908 7.89631 9.90685 7.89631Z" fill="#777777"/>
    <path d="M18.0415 20.9546C16.8391 20.9546 15.6368 20.9546 14.4344 20.9546C13.5045 20.9546 13.1757 20.6166 13.1757 19.6778C13.1757 17.2746 13.1757 14.8713 13.1757 12.4681C13.1757 11.5106 13.5045 11.1726 14.472 11.1726C16.8767 11.1726 19.2814 11.1726 21.6861 11.1726C22.6254 11.1726 22.9636 11.5012 22.9636 12.4306C22.9636 14.8526 22.9636 17.2652 22.9636 19.6872C22.9636 20.6354 22.6442 20.9546 21.6955 20.9546C20.4743 20.9546 19.2626 20.9546 18.0415 20.9546ZM15.0732 19.0301C17.0834 19.0301 19.0653 19.0301 21.0473 19.0301C21.0473 17.0117 21.0473 15.0403 21.0473 13.0783C19.0372 13.0783 17.0552 13.0783 15.0732 13.0783C15.0732 15.0873 15.0732 17.0493 15.0732 19.0301Z" fill="#777777"/>
    <path d="M24.2036 40.678C20.9723 40.678 17.7409 40.678 14.5096 40.678C14.3405 40.678 14.1621 40.6874 13.993 40.6593C13.5515 40.5935 13.2321 40.2368 13.1946 39.805C13.1664 39.3825 13.4388 38.9789 13.8803 38.8662C14.0775 38.8193 14.2842 38.8005 14.4814 38.8005C20.9816 38.8005 27.4724 38.8005 33.9726 38.8005C34.0384 38.8005 34.0948 38.8005 34.1605 38.8005C34.8368 38.8193 35.2783 39.2042 35.2689 39.758C35.2595 40.3119 34.8274 40.678 34.1417 40.678C30.8259 40.678 27.51 40.678 24.2036 40.678Z" fill="#777777"/>
    <path d="M24.2129 44.6209C20.9346 44.6209 17.6564 44.6209 14.3781 44.6209C13.7205 44.6209 13.373 44.405 13.2415 43.9356C13.1006 43.4286 13.373 42.9405 13.8708 42.8091C14.0681 42.7621 14.2748 42.7433 14.472 42.7433C20.9722 42.7433 27.463 42.7433 33.9632 42.7433C33.9914 42.7433 34.029 42.7433 34.0571 42.7433C34.818 42.7527 35.2689 43.1095 35.2689 43.6915C35.2689 44.2735 34.818 44.6209 34.0477 44.6209C30.7695 44.6209 27.4912 44.6209 24.2129 44.6209Z" fill="#777777"/>
    <path d="M23.3769 36.7352C20.4086 36.7352 17.4403 36.7352 14.472 36.7352C14.2748 36.7352 14.0587 36.7352 13.8708 36.6789C13.4388 36.5663 13.2133 36.2471 13.2039 35.8152C13.1945 35.3928 13.4012 35.0548 13.8333 34.9328C14.0493 34.8671 14.2935 34.8577 14.5284 34.8577C20.465 34.8577 26.4016 34.8577 32.3382 34.8577C33.193 34.8577 33.6438 35.1675 33.6626 35.7777C33.6814 36.3973 33.2117 36.7352 32.3288 36.7352C29.3417 36.7352 26.3546 36.7352 23.3769 36.7352Z" fill="#777777"/>
    <path d="M22.5785 23.0292C25.2462 23.0292 27.9233 23.0292 30.591 23.0292C30.7601 23.0292 30.9386 23.0292 31.1077 23.0386C31.6055 23.0855 31.9625 23.4423 31.9906 23.9116C32.0188 24.3623 31.6901 24.7659 31.1922 24.8598C31.0137 24.8974 30.8165 24.8974 30.638 24.8974C25.2838 24.8974 19.9202 24.8974 14.566 24.8974C14.3312 24.8974 14.0963 24.8786 13.8709 24.8316C13.467 24.7378 13.1852 24.3435 13.1946 23.9304C13.2134 23.4986 13.5233 23.1231 13.9648 23.0574C14.1527 23.0292 14.3406 23.0292 14.5284 23.0292C17.2055 23.0292 19.892 23.0292 22.5785 23.0292Z" fill="#777777"/>
    <path d="M22.4939 30.9149C25.1616 30.9149 27.8388 30.9149 30.5065 30.9149C30.6943 30.9149 30.8822 30.9149 31.0607 30.9618C31.4834 31.0651 31.7558 31.4218 31.7464 31.8536C31.737 32.2949 31.5209 32.6047 31.0982 32.7173C30.8916 32.7736 30.6661 32.783 30.4501 32.783C25.1429 32.783 19.8262 32.783 14.519 32.783C13.6548 32.783 13.2133 32.4732 13.1945 31.863C13.1757 31.2434 13.636 30.9055 14.5284 30.9055C17.1773 30.9149 19.8356 30.9149 22.4939 30.9149Z" fill="#777777"/>
    <path d="M22.1557 26.9721C24.7013 26.9721 27.2469 26.9721 29.7925 26.9721C29.9804 26.9721 30.1683 26.9721 30.3561 27.0002C30.7788 27.0753 31.07 27.4321 31.0888 27.8545C31.1076 28.2863 30.8634 28.6525 30.4407 28.7651C30.2528 28.8214 30.0368 28.8402 29.8395 28.8402C24.7201 28.8402 19.5914 28.8402 14.472 28.8402C14.2747 28.8402 14.0681 28.8214 13.8708 28.7745C13.4575 28.6712 13.1757 28.2863 13.1945 27.8733C13.2039 27.4415 13.5326 27.0659 13.9647 26.9908C14.1526 26.9627 14.3405 26.9627 14.5283 26.9627C17.0645 26.9721 19.6101 26.9721 22.1557 26.9721Z" fill="#777777"/>
    <path d="M29.9523 13.0407C28.6278 13.0407 27.294 13.0407 25.9695 13.0407C25.8004 13.0407 25.6219 13.0407 25.4529 13.0126C25.0208 12.9469 24.7014 12.562 24.6826 12.1301C24.6732 11.7171 24.9456 11.3322 25.3589 11.2289C25.5562 11.182 25.7628 11.1632 25.9601 11.1632C28.6278 11.1632 31.3049 11.1632 33.9726 11.1632C34.0478 11.1632 34.1323 11.1632 34.2075 11.1632C34.8462 11.2008 35.2783 11.595 35.2595 12.1301C35.2407 12.6746 34.8274 13.0314 34.1605 13.0407C32.7609 13.0501 31.3613 13.0407 29.9523 13.0407Z" fill="#777777"/>
    <path d="M29.9523 16.993C28.6278 16.993 27.294 16.993 25.9695 16.993C25.7816 16.993 25.5938 16.993 25.4059 16.9554C25.002 16.8803 24.692 16.5048 24.6826 16.0918C24.6732 15.6787 24.9456 15.2844 25.3495 15.1812C25.5562 15.1342 25.7816 15.1154 25.9977 15.1154C28.6372 15.1154 31.2767 15.1154 33.9163 15.1154C34.7992 15.1154 35.2689 15.4534 35.2501 16.073C35.2313 16.6832 34.7898 16.9836 33.9257 16.9836C32.6106 16.993 31.2861 16.993 29.9523 16.993Z" fill="#777777"/>
    <path d="M29.2666 19.077C30.4407 19.077 31.6055 19.0676 32.7797 19.0864C33.5781 19.0958 34.0666 19.6872 33.7754 20.3162C33.6627 20.5603 33.3621 20.7292 33.1178 20.8982C33.0145 20.9639 32.8454 20.9545 32.7045 20.9545C30.422 20.9545 28.1394 20.9545 25.8662 20.9545C25.7253 20.9545 25.5844 20.9358 25.4435 20.9076C25.002 20.8231 24.692 20.4476 24.692 20.0158C24.692 19.5652 25.0114 19.1521 25.4717 19.1146C26.1104 19.0676 26.7492 19.077 27.3879 19.077C28.0173 19.0676 28.6372 19.077 29.2666 19.077Z" fill="#777777"/>
    <path d="M35.0904 28.2018C35.081 28.7088 34.6396 29.1218 34.1417 29.1031C33.6439 29.0843 33.2118 28.6431 33.2306 28.1549C33.2494 27.6574 33.6814 27.2443 34.1887 27.2631C34.7053 27.2725 35.1092 27.6949 35.0904 28.2018Z" fill="#777777"/>
</svg>
