<svg width="71" height="64" viewBox="0 0 71 64" fill="none" xmlns="http://www.w3.org/2000/svg">
    <path d="M42.0892 3.10953C42.739 3.39915 43.3887 3.68877 44.0384 3.97839C44.0925 4.04422 44.1466 4.11006 44.211 4.15269C47.1675 6.06863 48.6998 9.46361 48.046 12.9271C47.8332 14.0283 47.3562 15.0673 47.0403 16.1503C45.607 21.1439 46 31.3054 56 35.8379C59.8402 36.3955 38.2769 44.556 39.9407 41.0421C41.5528 37.6441 44.2722 35.8802 48.046 35.8379C48.8417 35.8311 49.6411 36.0344 50.4303 36.1359C51.08 36.4255 51.7297 36.7151 52.3795 37.0048C52.4451 37.0758 52.5108 37.1468 52.5933 37.2114C57.7886 40.5008 57.8962 48.1838 52.7889 51.623C50.161 53.3999 47.3169 53.6341 44.397 52.416C42.56 51.6388 40.6829 50.9828 38.7165 50.6208C31.5741 49.3284 48.2444 31.7625 42.2555 35.8379C38.9049 38.1132 36.2719 41.056 34.3488 44.6213C33.7815 45.6756 33.3198 46.8049 32.6815 47.7999C30.5098 51.1431 26.2121 52.5789 22.5933 51.2439C18.6793 49.7913 16.3517 46.0278 16.854 41.9683C16.9229 41.4705 17.0318 40.9767 17.1239 40.4893C17.4135 39.8396 17.7031 39.1899 17.9927 38.5402C18.0586 38.4861 18.1244 38.432 18.167 38.3675C20.083 35.411 23.4896 33.8839 26.9414 34.5326C28.0426 34.7453 29.0816 35.2223 30.1647 35.5382C34.9119 36.9312 39.9568 33.8814 40.954 29.0551C41.7761 25.0269 39.7943 21.1116 36.0495 19.3728C32.3408 17.6779 30.3382 13.9342 30.9706 9.98827C31.0342 9.62722 31.0978 9.26617 31.173 8.91028C31.4626 8.26058 31.7522 7.61087 32.0419 6.96117C32.0961 6.9019 32.1735 6.85298 32.2162 6.78854C34.2172 3.82824 37.0084 2.52741 40.5535 2.84215C41.0732 2.89303 41.5735 3.01868 42.0892 3.10953Z" fill="#D9EBFE"/>
    <path d="M39.3667 60.1504C34.938 59.416 33.159 54.9155 27.5 50.9983C19.5505 45.4957 0 54.5472 0 38.3615C0.21227 30.9689 3.82889 23.5351 9.34959 18.0699C22.9927 4.56379 38.3868 18.4999 46 27C54.4858 36.4743 70.1076 40.3265 57.0817 56.2333C51.6688 62.8435 43.7955 60.8849 39.3667 60.1504Z" fill="#D9EBFE"/>
    <g clip-path="url(#clip0_1693_10)">
        <path d="M1.32469 29.4253C1.09093 28.8947 0.818199 28.4021 0.662355 27.8716C0.194822 26.5074 0.545471 25.5979 1.83119 24.84C1.05196 23.6274 1.013 22.4147 2.06495 21.2779C1.05197 20.4063 0.701316 19.3074 1.013 18.0569C1.24677 17.1095 1.90911 16.5411 2.88313 16.3137C3.1169 16.2758 3.27274 16.2 3.38963 15.9347C4.05197 14.1537 5.49352 13.3579 7.44158 13.7369C8.96106 14.0021 10.1688 14.7221 10.9091 16.1242C10.9481 16.2 11.1039 16.3137 11.2208 16.3137C12.2727 16.3137 13.1299 16.7684 13.9091 17.4126C14.065 17.5263 14.3377 17.64 14.5325 17.64C15.6624 17.5263 16.5974 17.8674 17.4156 18.5495C17.5714 18.6632 17.7663 18.7769 17.9221 18.739C19.052 18.5495 19.987 18.9284 20.8831 19.5726C21.1169 19.7242 21.2727 19.8 21.5455 19.6863C22.6364 19.3074 23.6494 19.6863 24.5455 20.2547C24.8572 20.4442 25.0909 20.4821 25.4805 20.3305C26.1818 19.9895 26.9221 20.0653 27.6624 20.2926C27.8182 20.3305 28.052 20.3305 28.1299 20.2547C29.1039 19.4969 30.1169 19.2316 31.2857 19.8379C32.1039 18.5116 33 18.1326 34.6364 18.3979C34.9481 18.4358 35.1429 18.3979 35.2987 18.0947C35.6494 17.4884 36.2338 17.1853 36.8961 16.9958C37.4416 16.8442 37.987 16.7684 38.5325 16.6169C38.6494 16.579 38.8442 16.5032 38.8442 16.3895C39.2727 14.9495 40.3247 14.1916 41.7663 13.8505C41.8442 13.8505 41.8831 13.8126 41.9611 13.7747C41.6104 12.6379 41.9611 11.6147 42.6234 10.6674C43.9481 8.65896 46.3637 8.88633 47.7273 9.98527C48.1948 10.3263 48.5844 10.7811 48.974 11.1979C50.1818 12.4863 50.4156 14.4569 49.5195 15.9726C49.4416 16.0863 49.4805 16.3137 49.5195 16.4653C49.6364 17.0337 49.7922 17.6021 49.8701 18.1705C49.9091 18.4737 49.7922 18.8905 49.5585 19.08C48.9351 19.7242 49.1299 20.5958 48.6624 21.2779C48.6234 21.3158 48.6624 21.4674 48.7013 21.5432C48.8572 22.4905 48.8182 23.3621 48.3507 24.2337C48.2727 24.3853 48.3117 24.5747 48.3507 24.7642C48.5455 25.5221 48.5065 26.28 48.0779 26.9621C48 27.0758 48 27.2653 48.039 27.379C48.2727 27.9853 48.3896 28.6295 48.2338 29.2737C48.1948 29.3874 48.2727 29.5769 48.3117 29.6905C48.5844 30.3726 48.7403 31.0926 48.5065 31.8126C48.4676 31.9263 48.5455 32.1158 48.6234 32.2674C49.1299 33.139 49.4416 34.0484 49.2078 35.0337C49.1689 35.1853 49.2857 35.3747 49.3637 35.5263C49.6753 36.2084 49.987 36.8526 50.2598 37.5726C50.3766 37.8758 50.4546 38.2547 50.3766 38.5579C50.2208 39.1263 50.4156 39.619 50.6104 40.1116C50.9611 41.1726 51.1948 42.2716 50.8442 43.3705C50.6883 43.8253 50.4156 44.28 50.1429 44.6969C49.9481 44.9621 49.8312 45.2274 49.7922 45.5305C49.6753 46.3642 49.5585 47.2358 49.3637 48.0695C49.0909 49.0169 48.5455 49.7369 47.5714 50.1158C47.4156 50.1537 47.3377 50.3811 47.2598 50.5326C46.9481 51.1011 46.6753 51.7074 46.2857 52.2379C45.4286 53.3747 44.2208 53.7158 42.8572 53.3369C42.5844 53.2611 42.3896 53.299 42.1559 53.4884C41.4156 54.1326 40.6364 54.6253 39.6624 54.8905C38.4156 55.2695 37.2857 55.08 36.1948 54.36C36 54.2463 35.7273 54.2084 35.4935 54.2084C34.6753 54.1705 33.8182 54.2463 33 54.1326C32.2208 54.0569 31.5974 53.6021 31.0909 52.9958C31.013 52.8821 30.8572 52.8063 30.6624 52.6547C30.7403 53.1474 30.8961 53.5263 30.8961 53.9053C30.8961 54.4737 30.7792 55.08 30.7013 55.6484C30.6624 55.9895 30.5455 56.3684 30.5455 56.7095C30.5844 57.8842 30.4286 58.9832 29.9611 60.0821C29.1039 62.0905 27.1559 63.2653 24.9351 63.1137C23.3766 63 22.2857 61.8632 22.013 60.1579C21.7792 58.6042 22.013 57.1263 22.5974 55.6484C22.7143 55.3832 22.6753 55.2316 22.4805 55.0042C21.3117 53.6779 20.4156 52.2 20.1429 50.4569C19.987 49.5853 20.065 48.7516 20.3377 47.9179C21.3896 44.0147 25.3247 42.2716 29.1039 43.8632C30.039 44.2421 30.8572 44.8484 31.7143 45.3411C31.8701 45.4169 32.1039 45.4926 32.2987 45.4547C33.0779 45.3032 33.7792 45.4547 34.4026 45.8716C34.987 46.2505 35.4935 46.7432 36.0779 47.2358C37.013 46.8947 38.1039 46.44 39.1169 47.16C39.6234 46.8947 40.0909 46.6674 40.5585 46.44C40.6753 46.4021 40.7143 46.2505 40.7922 46.1369C40.987 45.7579 41.2208 45.379 41.4156 45C41.4935 44.8484 41.5714 44.6969 41.5325 44.5453C41.3766 43.5979 41.2598 42.6126 41.7273 41.7032C41.7663 41.5895 41.6883 41.4 41.6104 41.2484C41.1818 40.339 40.7922 39.3916 40.987 38.3684C41.065 37.9137 40.987 37.5347 40.7533 37.1179C40.2857 36.2463 39.974 35.3369 40.052 34.2758C40.0909 33.7832 39.7792 33.2526 39.7403 32.7221C39.7013 32.1916 39.8182 31.6611 39.8182 31.1305C39.8182 30.979 39.8572 30.8274 39.8182 30.7137C39.6234 29.8421 39.5065 28.9705 39.9351 28.1369C40.013 27.9853 39.9351 27.7958 39.8961 27.6063C39.7013 26.7726 39.6624 25.939 40.013 25.1432C40.0909 24.9916 40.2078 24.84 40.2857 24.6884C40.5974 24.3095 40.5974 24.3095 40.4026 23.7411C39.3896 24.3095 38.3377 24.6126 37.1689 24.5369C37.0909 24.5369 36.974 24.6126 36.8961 24.6505C35.9221 25.4084 34.8312 25.7495 33.5844 25.5221C33.4286 25.4842 33.2727 25.5979 33.1169 25.6358C32.2208 26.0905 31.2857 26.5453 30.2338 26.3558C29.7663 26.28 29.3377 26.3179 28.8701 26.4695C27.974 26.8105 27.039 27.0379 26.1039 26.8863C25.8701 26.8484 25.5974 26.8105 25.4026 26.659C25.013 26.3937 24.7013 26.4695 24.2727 26.5832C23.1429 26.9621 22.013 27.0379 20.8831 26.3937C20.7663 26.3179 20.5325 26.3937 20.3766 26.4316C19.5195 26.7347 18.6624 26.9621 17.7273 26.8863C16.9091 26.8105 16.2468 26.4695 15.7403 25.8632C15.6624 25.7495 15.5065 25.6358 15.3896 25.6358C13.9481 25.7874 12.5844 25.56 11.3377 24.9537C11.1039 25.4842 10.9091 25.9769 10.6753 26.4695C10.6364 26.5453 10.6364 26.659 10.6753 26.7347C11.065 27.7579 10.7533 28.7053 10.4416 29.6526C10.3637 29.9179 10.3247 30.2211 10.4026 30.4484C10.5974 31.1684 10.4805 31.8884 10.3247 32.6084C10.2857 32.8358 10.3637 33.0632 10.4026 33.2905C10.4805 33.6695 10.7143 34.0484 10.7143 34.4274C10.6753 34.9579 10.9091 35.299 11.1429 35.7537C11.3766 36.2463 11.4546 36.8147 11.6104 37.3453C11.6494 37.4969 11.7273 37.6863 11.8442 37.8C14.1818 39.3916 14.4156 42.5747 12.3507 44.5453C12.0779 44.8105 12.039 45 12.1948 45.3411C12.6624 46.4021 13.0909 47.4632 13.4805 48.5621C13.7922 49.4716 13.5974 49.7747 12.6624 50.1158C12.6234 50.1158 12.6234 50.1537 12.5844 50.1537C11.5714 50.5326 11.4935 50.4947 10.9091 49.5853C10.5195 48.9411 10.0909 48.3347 9.70132 47.6905C9.54547 47.4253 9.38963 47.3874 9.1169 47.5011C7.87015 47.9937 6.58443 48.2969 5.2208 48.259C2.96106 48.2211 1.36365 47.0463 0.545471 44.8105C0.1169 43.6358 -0.116866 42.4232 0.350666 41.1726C0.389627 41.059 0.350666 40.8695 0.311705 40.7558C-0.0389441 39.6569 -0.116866 38.52 0.272744 37.4211C0.311705 37.3074 0.272744 37.1558 0.272744 37.0421C1.69147e-05 35.7916 0.0779391 34.6169 0.974043 33.5558C1.05197 33.48 1.013 33.2526 0.974043 33.1011C0.818199 32.4569 0.584433 31.7747 0.50651 31.1305C0.428588 30.4105 0.779238 29.8421 1.32469 29.4253ZM46.9481 27.72C46.7143 27.7958 46.5195 27.9474 46.3247 27.9474C46.1299 27.9474 45.8572 27.8716 45.7403 27.72C45.6234 27.5684 45.6624 27.3032 45.7403 27.1137C45.7792 26.9621 46.013 26.8863 46.2078 26.8105C46.987 26.4695 47.2987 25.9769 47.1818 25.2569C46.987 25.3326 46.7533 25.4463 46.5585 25.4463C46.3247 25.4084 46.013 25.3326 45.8961 25.1432C45.7403 24.9158 45.8182 24.6126 46.0909 24.4232C46.2078 24.3474 46.3247 24.3474 46.4416 24.2716C47.2208 23.9305 47.6883 23.059 47.4935 22.3011C47.1818 22.3769 46.8701 22.4905 46.5585 22.5284C46.2468 22.5663 45.974 22.3769 45.974 22.0737C45.974 21.8463 46.1689 21.619 46.3247 21.4674C46.4026 21.3916 46.5974 21.3916 46.7143 21.3537C47.3377 21.1263 47.8442 20.52 47.7663 19.9516C47.6104 19.9516 47.4546 19.9895 47.2987 19.9895C46.9091 19.9895 46.6364 19.8379 46.6364 19.459C46.5974 19.08 46.8701 18.8905 47.2208 18.8526C47.3377 18.8526 47.4546 18.8526 47.6104 18.8147C48.5844 18.6632 48.8572 18.2463 48.5844 17.3369C48.5455 17.1853 48.4676 17.0716 48.4286 16.92C48.1169 17.0337 47.8442 17.2232 47.5714 17.299C47.026 17.4126 46.7533 17.7537 46.4805 18.1705C45.2727 20.1411 43.4416 20.8611 41.2598 20.2547C40.7533 20.1032 40.5195 19.8758 40.6364 19.5347C40.7533 19.1558 41.026 19.08 41.5325 19.1937C42.0779 19.2695 42.7013 19.3832 43.2468 19.3074C44.4935 19.1179 45.1948 18.2084 45.7013 17.1853C45.9351 16.7684 46.2078 16.5411 46.6753 16.4274C46.8312 16.3895 46.987 16.3516 47.1818 16.2758C48.0779 15.9726 48.7013 15.4042 48.8182 14.4947C48.974 13.4337 48.6624 12.5242 47.8831 11.7663C47.6104 11.539 47.3377 11.5011 47.026 11.6905C46.3637 12.0316 46.1689 12.5242 46.3247 13.2821C46.4026 13.6611 46.2857 13.9263 45.8961 14.0021C45.5455 14.0779 45.3117 13.8884 45.1948 13.5474C44.8831 12.6758 45.1948 11.6526 45.9351 11.0463C46.1299 10.8947 46.3247 10.7432 46.5195 10.6295C46.5195 10.5916 46.5195 10.5537 46.5195 10.5158C46.052 10.4779 45.6234 10.3263 45.1559 10.3642C43.9481 10.4779 43.4805 11.3495 43.1299 12.2969C42.8572 13.0926 43.1299 13.699 43.8312 14.1537C44.2208 14.419 44.3377 14.7221 44.1818 15.0253C43.987 15.3284 43.5974 15.4421 43.2468 15.139C42.7792 14.76 42.3117 14.8737 41.8052 15.0253C40.4416 15.4421 39.7792 16.3895 39.8961 17.7537C39.8961 17.9432 39.9351 18.1326 39.974 18.2842C40.013 18.6253 39.8182 18.8526 39.5065 18.8905C39.1559 18.9663 38.9221 18.7769 38.8442 18.4358C38.7663 18.2084 38.7663 17.9811 38.6883 17.6779C38.1818 17.7916 37.7143 17.8674 37.2857 17.9811C36.0779 18.36 35.9221 18.8147 36.5455 19.8379C36.5455 19.8758 36.5844 19.8758 36.5844 19.9137C36.7403 20.2169 36.6624 20.4821 36.3896 20.6716C36.1169 20.8611 35.8442 20.7853 35.6494 20.5579C35.4546 20.3305 35.3377 20.0653 35.1818 19.8379C35.1039 19.7242 34.987 19.5726 34.8701 19.5347C34.3247 19.4969 33.7403 19.4211 33.1948 19.4969C32.4546 19.6105 32.1429 20.3305 32.5325 20.9369C32.7273 21.2779 32.8052 21.619 32.4546 21.8463C32.065 22.1116 31.8312 21.8463 31.5585 21.5811C31.2078 21.24 30.8572 20.899 30.4286 20.6716C29.9221 20.4063 29.4546 20.7095 29.026 20.9747C28.6364 21.24 28.987 21.5053 28.9481 21.8084C28.9481 21.8463 28.987 21.8842 28.987 21.96C29.065 22.4526 28.8701 22.7937 28.4805 22.8316C28.0909 22.8695 27.8572 22.6042 27.8182 22.0737C27.7792 21.7326 27.6624 21.4674 27.3117 21.3158C26.3766 20.899 25.5585 21.3537 25.4416 22.339C25.4416 22.4147 25.4416 22.4526 25.4026 22.5284C25.3247 22.8316 25.0909 23.059 24.8182 22.9453C24.5844 22.8695 24.3896 22.6421 24.2727 22.4526C24.1948 22.339 24.2338 22.1116 24.2727 21.96C24.4286 21.5053 24.2338 21.24 23.8442 21.0884C23.6883 21.0126 23.4935 20.9369 23.3377 20.8611C22.1689 20.4063 21.4676 20.7095 21.039 21.8463C20.8831 22.2253 20.6494 22.4147 20.2598 22.3011C19.9091 22.2253 19.7533 21.8842 19.9091 21.4674C20.026 21.1642 20.1818 20.8611 20.3377 20.5579C19.052 19.459 17.8442 19.5347 16.7922 20.7853C16.5195 21.0884 16.1688 21.1642 15.8961 20.9369C15.5844 20.6716 15.6234 20.3684 15.8572 20.1032C16.0909 19.8379 16.3247 19.5726 16.5974 19.2695C16.5195 19.2316 16.4805 19.2316 16.4416 19.1937C15.4286 18.4737 14.3766 18.5495 13.2468 19.459C12.9351 19.7242 12.6234 19.7621 12.3507 19.4969C12.0779 19.1937 12.1559 18.8526 12.4676 18.5495C12.6624 18.36 12.8572 18.2084 13.052 18.0569C12.039 17.1474 11.065 17.1474 10.052 17.9811C9.74028 18.2463 9.46755 18.3221 9.15586 18.019C8.88313 17.7916 8.9221 17.4126 9.27274 17.1095C9.46755 16.92 9.74028 16.7305 9.97404 16.5411C9.93508 16.4653 9.89612 16.3895 9.85716 16.3137C9.23378 15.1769 7.28573 14.419 6.03898 14.7979C5.33768 14.9874 4.83119 15.5937 4.75326 16.2C4.83119 16.2 4.94807 16.2379 5.02599 16.2379C5.84417 16.3895 6.66236 16.579 7.36365 17.1095C7.67534 17.3369 7.75326 17.64 7.5195 17.9432C7.28573 18.2463 6.97404 18.2084 6.66236 18.019C5.64937 17.3747 4.5195 17.1474 3.31171 17.3747C2.96106 17.4505 2.61041 17.7158 2.4156 18.019C1.98703 18.7011 2.2208 19.6863 2.80521 20.179C3.62339 20.8611 4.67534 21.0126 5.72729 21.0884C5.64937 20.7095 5.57145 20.4063 5.49352 20.0653C5.4156 19.5726 5.57145 19.2695 5.9221 19.1937C6.27274 19.1179 6.50651 19.3832 6.66236 19.8379C6.85716 20.4063 7.09093 21.0126 7.44158 21.5053C7.83119 22.0358 8.45456 22.2253 9.15586 22.2253C9.07794 21.8842 9.00002 21.5811 9.00002 21.2779C8.96106 20.9369 9.15586 20.7095 9.50651 20.6716C9.85716 20.6337 10.052 20.7853 10.1299 21.1263C10.1688 21.2779 10.1688 21.3916 10.2078 21.5432C10.7143 23.6274 12.8182 24.84 15.2338 24.4611C15.2338 24.0063 15.1948 23.5137 15.1948 23.0211C15.1948 22.5284 15.4286 22.2632 15.8182 22.2632C16.1688 22.2632 16.3637 22.5663 16.3637 23.0211C16.3637 23.3621 16.3637 23.7032 16.4416 24.0442C16.5585 24.9916 17.1039 25.6358 17.8831 25.7495C18.7403 25.8632 19.5195 25.6737 20.2987 25.3326C20.2598 25.0674 20.1818 24.8779 20.1818 24.6505C20.1818 24.4611 20.2598 24.2337 20.3766 24.12C20.4935 24.0063 20.8052 23.9305 20.9221 24.0063C21.1169 24.12 21.2727 24.3474 21.3507 24.5369C21.5455 25.2569 21.8961 25.6737 22.5585 25.7495C23.2208 25.8253 23.8831 25.6737 24.5065 25.4463C24.4676 25.219 24.4676 25.0295 24.4286 24.84C24.3896 24.4611 24.4676 24.12 24.9351 24.0442C25.3247 23.9684 25.5585 24.2337 25.5974 24.7263C25.6753 25.4463 26.026 25.7874 26.7663 25.7495C27.4675 25.7116 28.1688 25.56 28.8312 25.4463C28.6364 24.8779 28.4416 24.4232 28.3247 23.9684C28.2468 23.6274 28.4026 23.3621 28.7922 23.2863C29.1429 23.2105 29.3766 23.4 29.4935 23.7411C29.5325 23.8926 29.5714 24.0442 29.6104 24.1958C29.8831 25.0295 30.4286 25.3705 31.3247 25.219C31.7922 25.1432 32.2208 24.9537 32.6883 24.8021C32.5325 24.4611 32.3766 24.1958 32.2987 23.9305C32.1818 23.6274 32.1429 23.3621 32.1039 23.059C32.065 22.7179 32.1818 22.4147 32.5714 22.339C32.9221 22.2632 33.1948 22.4905 33.2727 22.9074C33.3117 23.1347 33.3507 23.4 33.4286 23.6274C33.5455 24.0063 33.7792 24.3853 34.2078 24.4611C35.065 24.6126 35.8831 24.3853 36.4676 23.779C36.974 23.2105 36.6234 22.6042 36.3117 22.0737C36.2727 22.0358 36.2727 21.9979 36.2338 21.96C36.0779 21.619 36.3117 21.1642 36.7013 21.2021C36.9351 21.2021 37.2468 21.3537 37.3247 21.5432C37.5974 22.1495 37.7922 22.7558 38.026 23.4C39.3896 23.5137 40.6364 22.7558 41.1039 21.4295C41.2208 21.0884 41.4546 20.8611 41.8442 20.9747C42.2338 21.0884 42.3117 21.3916 42.2338 21.7326C42.1559 22.0737 42 22.4147 41.9611 22.7937C41.7663 24.12 42.2338 24.5747 43.5974 24.499C43.6364 24.499 43.6753 24.499 43.7533 24.499C44.1039 24.499 44.3766 24.6505 44.4156 24.9916C44.4546 25.3326 44.2598 25.56 43.9091 25.6358C43.2468 25.7495 42.6234 25.7116 42.039 25.4463C41.6883 25.2947 41.5325 25.3326 41.3766 25.6737C41.1429 26.2042 41.1818 26.7347 41.2987 27.1137C42.0779 27.2274 42.7403 27.2653 43.4026 27.4169C43.8701 27.4926 44.065 27.8337 43.9091 28.1747C43.7533 28.5537 43.4416 28.5916 43.052 28.5158C42.6234 28.44 42.1948 28.3642 41.7663 28.3642C41.5325 28.3642 41.2208 28.6295 41.1429 28.819C41.026 29.1979 41.026 29.6147 41.026 29.9937C42.1948 29.88 42.7792 29.88 43.4026 30.0695C43.8312 30.2211 44.026 30.4863 43.9091 30.8653C43.7922 31.2063 43.4805 31.2821 43.052 31.2063C42.6234 31.1305 42.1948 31.0547 41.7663 31.0926C41.5714 31.0926 41.2987 31.2821 41.1818 31.4716C40.9091 31.9642 41.026 32.4947 41.1818 33.0253C41.9221 32.7221 42.6234 32.6463 43.3637 32.7979C43.7143 32.8737 43.9091 33.0632 43.8701 33.4421C43.8312 33.7832 43.5974 33.9347 43.2468 33.9347C42.9351 33.9347 42.5844 33.8969 42.2727 33.9347C41.6494 34.0105 41.3377 34.3137 41.4546 34.92C41.5714 35.5642 41.8052 36.2084 41.9611 36.739C42.8182 36.6253 43.5195 36.5116 44.2208 36.4737C44.7273 36.4358 45 36.739 44.9611 37.08C44.9221 37.459 44.6494 37.6105 44.1818 37.6105C43.9091 37.6105 43.6364 37.6105 43.3637 37.6484C42.6234 37.7621 42.2338 38.179 42.3507 38.9369C42.4676 39.619 42.7013 40.2632 42.8961 40.9074C44.1429 40.7558 44.8442 40.8316 45.6624 41.1726C46.013 41.3242 46.2468 41.5516 46.1299 41.9305C46.013 42.2716 45.7013 42.3853 45.2338 42.2716C44.7663 42.1579 44.2987 42.0442 43.8312 42.0063C43.2857 41.9684 42.974 42.2337 42.9351 42.7642C42.8961 43.3326 42.9351 43.9011 42.9351 44.3558C43.6364 44.5453 44.2208 44.6969 44.7663 44.8863C45.1169 45 45.2338 45.3032 45.0779 45.6442C44.9221 45.9853 44.6494 46.0611 44.2987 45.9474C43.987 45.8337 43.6753 45.7579 43.3637 45.72C42.7403 45.6442 42.4286 45.9095 42.3117 46.4779C42.6234 46.6674 42.974 46.819 43.2468 47.0463C43.4026 47.16 43.5974 47.3874 43.5974 47.539C43.5974 47.7284 43.4416 48.0316 43.3247 48.0695C43.1299 48.1453 42.7792 48.1074 42.6234 47.9558C42.1169 47.5769 41.6104 47.5011 41.065 47.7284C40.5585 47.9558 40.013 48.1832 40.1299 48.9411C40.1689 49.0926 39.8572 49.3579 39.7013 49.3958C39.5065 49.4337 39.2338 49.2821 39.0779 49.1305C38.9611 49.0169 39 48.7895 38.9611 48.6C38.8831 48.2211 38.6494 47.9937 38.2208 48.0316C37.8312 48.0695 37.4416 48.1832 37.052 48.3347C36.9351 48.3726 36.7792 48.6 36.7792 48.7137C36.7403 49.3958 36.4676 49.9263 35.9611 50.3811C35.6104 50.7221 35.2598 50.76 34.987 50.4947C34.7533 50.2295 34.7922 49.9263 35.1429 49.5853C35.6494 49.0926 35.7663 48.5242 35.2987 47.9937C34.8701 47.5011 34.3247 47.1221 33.7792 46.7811C33.3896 46.5158 32.8831 46.5916 32.5325 46.8947C32.2987 47.0842 32.1039 47.3495 31.9091 47.6147C31.7143 47.9558 31.4416 48.1074 31.052 47.9558C30.7013 47.8042 30.6234 47.4632 30.8572 47.0463C31.013 46.7811 31.1689 46.5537 31.3247 46.3263C30.5844 45.6821 29.2987 44.9621 28.2468 44.659C25.1688 43.7495 21.9351 45.7958 21.5065 48.8653C21.3117 50.3811 21.8572 51.7074 22.6753 52.92C22.9481 53.3369 23.2598 53.7158 23.5714 54.1326C23.6494 54.0569 23.6883 54.019 23.7273 53.9811C24 53.6779 24.3117 53.6021 24.6234 53.8674C24.9351 54.1705 24.8572 54.4737 24.5844 54.739C24 55.4211 23.7273 56.2926 23.5325 57.1263C23.2598 58.339 23.1429 59.5137 23.6494 60.6884C23.9611 61.4463 24.5455 61.8253 25.4026 61.8253C27.1169 61.8632 28.6364 60.84 29.1818 59.1726C29.4935 58.2632 29.5714 57.3158 29.4935 56.3305C29.4546 56.0274 29.4935 55.6484 29.6104 55.3832C30.1559 54.1326 29.8831 52.6926 28.8312 51.7832C28.3247 51.3284 28.013 50.7979 27.9351 50.1537C27.8961 49.8126 27.974 49.5474 28.3637 49.4716C28.7533 49.3958 28.987 49.5474 29.1039 49.9263C29.1429 50.04 29.1429 50.1537 29.2208 50.2674C29.4546 50.8737 29.8831 51.2526 30.5844 51.3663C30.5455 50.9874 30.5065 50.6842 30.5065 50.3432C30.5065 49.8505 30.7403 49.5474 31.1299 49.5853C31.4805 49.6232 31.6753 49.8884 31.6753 50.3811C31.6364 52.2758 33.3507 53.5263 35.1429 52.8821C35.026 52.6926 34.9091 52.5032 34.7922 52.2758C34.5974 51.9347 34.6753 51.6695 34.987 51.4421C35.2987 51.2526 35.5714 51.4042 35.8442 51.7453C36.2338 52.2758 36.6234 52.8063 37.0909 53.2611C37.7143 53.7916 38.4935 53.9432 39.3117 53.7158C40.1299 53.4884 40.8312 53.0716 41.4935 52.5032C41.2208 52.3137 40.987 52.1242 40.7533 51.8969C40.5195 51.6695 40.4805 51.4042 40.7143 51.1769C40.9481 50.9116 41.2208 50.8737 41.4935 51.0632C41.5714 51.1011 41.6494 51.2147 41.7663 51.2526C42.1948 51.5179 42.5844 51.8211 43.052 51.9726C44.4546 52.5032 45.7792 51.7074 46.1689 50.1158C45.7013 49.9263 45.1948 49.7747 44.7663 49.5474C44.4546 49.3958 44.3377 49.0926 44.5325 48.7895C44.7273 48.4863 45 48.4105 45.3507 48.5621C45.6234 48.6758 45.9351 48.8274 46.2078 48.9032C46.8701 49.0547 47.5325 49.0169 48 48.4105C48.6234 47.6147 48.7403 46.6674 48.7792 45.6442C48.6624 45.6442 48.5844 45.6442 48.5455 45.6821C48.1559 45.7958 47.8052 45.6821 47.6883 45.2653C47.5714 44.8484 47.8052 44.659 48.1948 44.5453C50.1818 43.8632 50.3766 41.8169 49.4805 40.1495C49.3637 40.2253 49.2468 40.2632 49.0909 40.339C48.6234 40.5284 48.2727 40.4905 48.1169 40.1495C47.9611 39.8084 48.1169 39.5432 48.5844 39.3158C49.0909 39.0884 49.3637 38.6716 49.3247 38.1032C49.2857 37.3832 48.974 36.7769 48.5844 36.1705C48.4286 36.2842 48.3117 36.3979 48.1559 36.5116C47.8052 36.7769 47.3766 36.739 47.1429 36.4737C46.9481 36.1705 47.026 35.9053 47.4156 35.6021C48.3507 34.8821 48.4676 33.8211 47.7273 32.8358C47.6104 32.9116 47.4935 32.9874 47.3766 33.0253C47.2208 33.1011 47.1039 33.139 46.9481 33.2147C46.4416 33.3663 46.0909 33.2526 45.974 32.9116C45.8572 32.5326 46.013 32.3053 46.5195 32.1158C47.3766 31.8126 47.6494 31.2821 47.3766 30.3726C47.2208 30.4484 47.065 30.5242 46.8702 30.6C46.4416 30.7895 46.0909 30.7137 45.9351 30.3726C45.7792 29.9937 45.974 29.7663 46.3247 29.5769C47.065 29.1979 47.2987 28.6295 46.9481 27.72ZM9.50651 29.1221C9.58443 28.7053 9.70132 28.2505 9.74028 27.7958C9.77924 27.1137 9.38963 26.7347 8.72729 26.5832C8.53249 26.5453 8.33768 26.5453 8.18184 26.5453C7.75326 26.5074 7.48054 26.28 7.5195 25.939C7.55846 25.5221 7.83119 25.3326 8.2208 25.4084C8.76625 25.4842 9.31171 25.5979 9.93508 25.7116C10.013 25.2947 10.1688 24.84 10.2078 24.3474C10.2468 24.0442 9.66236 23.5516 9.35067 23.5516C8.25976 23.5516 7.24677 23.3242 6.46755 22.4905C6.38963 22.4147 6.19482 22.3769 6.03898 22.339C5.14287 22.2253 4.24677 22.0737 3.35067 21.96C3.19482 21.96 3.00002 21.9979 2.92209 22.0737C2.2208 22.68 2.2208 23.5516 2.92209 24.3474C3.03898 24.499 3.27274 24.5747 3.46755 24.5747C4.05196 24.6126 4.63638 24.5747 5.18184 24.6884C5.37664 24.7263 5.61041 25.0295 5.68833 25.219C5.72729 25.3705 5.45456 25.5979 5.29872 25.7495C5.18184 25.8253 4.98703 25.7495 4.79222 25.7874C4.013 25.8253 3.19482 25.7874 2.4156 25.939C1.75326 26.0526 1.48054 26.5453 1.63638 27.1895C1.79222 27.72 2.02599 28.2126 2.2208 28.7053C2.33768 28.9326 2.49352 28.9705 2.76625 28.9705C3.54547 28.9326 4.36365 28.9705 5.14287 29.0463C5.33768 29.0842 5.61041 29.3495 5.64937 29.5769C5.68833 29.7284 5.49352 29.9937 5.29872 30.1453C5.18184 30.2211 4.94807 30.1832 4.75326 30.1832C3.97404 30.1832 3.19482 30.1453 2.45456 30.259C1.90911 30.3347 1.59742 30.7137 1.63638 31.2442C1.67534 31.7747 1.83119 32.3053 1.94807 32.7979C2.61041 32.6463 3.1169 32.5326 3.66235 32.4569C4.12989 32.3811 4.48054 32.5705 4.5195 32.9116C4.55846 33.2905 4.28573 33.5179 3.77924 33.5937C3.35067 33.6695 2.92209 33.7453 2.53248 33.8969C1.75326 34.2 1.12989 35.2611 1.40261 36.0569C1.5195 35.9811 1.67534 35.9053 1.79222 35.7916C2.61041 35.299 3.46755 35.0337 4.44158 34.92C4.79222 34.8821 5.06495 35.0337 5.10391 35.4126C5.14287 35.7537 4.98703 35.9811 4.59742 36.0569C4.44158 36.0947 4.32469 36.0947 4.16885 36.1326C3.58443 36.36 2.92209 36.4737 2.4156 36.7769C1.36365 37.3832 0.935082 38.7095 1.36365 39.8463C1.48054 39.7326 1.59742 39.6569 1.75326 39.5811C2.4156 39.24 3.07794 38.8611 3.77924 38.5958C4.16885 38.4442 4.5195 38.5958 4.59742 38.9369C4.67534 39.3158 4.48054 39.5053 4.12989 39.6569C3.58443 39.8842 3.03898 40.0737 2.53248 40.4147C1.5195 41.0969 1.09093 42.0821 1.32469 43.2569C1.44158 43.9011 1.63638 44.5074 1.90911 45.1137C2.53248 46.4779 3.62339 47.1221 5.14287 47.1979C6.58443 47.2358 7.94807 46.819 9.23378 46.2884C9.85716 46.0232 10.013 46.099 10.3637 46.6295C10.9091 47.4632 11.4546 48.3347 11.9611 49.1684C12.3117 49.1305 12.3507 49.0169 12.2338 48.7516C11.7663 47.6147 11.2987 46.44 10.8312 45.3032C10.5585 44.659 10.5585 44.5832 11.1039 44.1663C12.5844 42.9916 12.8961 41.6653 12.1169 40.0358C11.4546 38.6716 10.7533 38.4063 9.31171 39.0884C9.31171 39.0884 9.27274 39.0884 9.27274 39.1263C8.96106 39.24 8.68833 39.2021 8.49352 38.899C8.29872 38.5958 8.37664 38.2926 8.64937 38.1411C9.03898 37.9137 9.50651 37.7621 9.93508 37.6105C10.052 37.5726 10.2078 37.5347 10.3637 37.5347C10.3247 36.3979 9.85716 35.9053 8.76625 35.7916C8.37664 35.7537 7.94807 35.8295 7.55846 35.8295C7.20781 35.8295 7.013 35.64 6.97404 35.3369C6.93508 35.0337 7.09093 34.8063 7.40262 34.7305C7.67534 34.6926 7.90911 34.6547 8.18184 34.6547C8.61041 34.6547 9.03898 34.6926 9.46755 34.7305C9.46755 34.0863 9.15586 33.6695 8.64937 33.4421C8.06495 33.2147 7.48054 33.1011 6.85716 32.9495C6.38963 32.8737 6.1169 32.6842 6.15586 32.3432C6.19482 32.0021 6.46755 31.7369 6.93508 31.8126C7.67534 31.9263 8.4156 32.1158 9.15586 32.2674C9.58443 30.9032 9.03898 30.1074 7.5195 30.1074H7.48054C7.09093 30.1453 6.74028 30.0316 6.70132 29.5769C6.66236 29.1979 6.93508 28.9326 7.44158 28.9705C8.14287 28.8947 8.76625 29.0084 9.50651 29.1221Z" fill="#007AC7"/>
        <path d="M5.72726 36.8527C5.72726 36.7011 5.72726 36.6253 5.72726 36.5495C5.72726 36.2084 5.88311 35.9432 6.27272 35.9432C6.66233 35.9053 6.85713 36.1706 6.8961 36.5116C6.97402 37.1558 7.01298 37.7621 7.12986 38.4063C7.48051 40.4148 8.29869 42.2337 9.62337 43.8253C9.93506 44.1663 9.93506 44.5074 9.66233 44.7348C9.35064 45 9.03895 44.9242 8.72726 44.5074C6.85713 42.2716 5.96103 39.6948 5.72726 36.8527Z" fill="#007AC7"/>
    </g>
    <defs>
        <clipPath id="clip0_1693_10">
            <rect width="51" height="54" fill="white" transform="translate(0 9)"/>
        </clipPath>
    </defs>
</svg>
