<svg width="59" height="63" viewBox="0 0 59 63" fill="none" xmlns="http://www.w3.org/2000/svg">
    <path d="M15.011 21.1153C15.0268 9.38797 24.6505 -0.0155932 36.6212 -0.000100163C48.5131 0.0153929 58.0424 9.49642 58.0109 21.3167C57.9794 32.8736 48.4344 42.0308 36.6212 41.9998C24.7293 41.9843 14.9953 32.7962 15.011 21.1153Z" fill="#FFDCDD"/>
    <path d="M7.93534 16.8006C6.23255 20.3914 8.85497 24.2074 9.02102 30.4769C9.25429 39.284 -7.92803 48.1967 4.79736 57.3322C10.7188 61.3524 18.4254 62.9543 25.5646 62.0796C43.2077 59.9178 40.1769 41.0115 37.4138 30.7538C34.3341 19.3204 39.3486 5.94232 20.1359 6.30632C12.152 6.45758 9.63813 13.2097 7.93534 16.8006Z" fill="#FFDCDD"/>
    <path d="M37.6708 4C38.0326 4.20845 38.1699 4.50274 38.1574 4.91964C38.12 5.86381 38.1075 6.82024 38.0576 7.76441C38.0326 8.23037 37.7083 8.51239 37.3215 8.4756C36.9098 8.43882 36.6478 8.09548 36.6728 7.61727C36.7227 6.89382 36.7601 6.1581 36.7975 5.41012C28.5883 5.41012 20.4539 5.41012 12.3196 5.41012C11.858 10.5601 14.2284 14.6188 20.1919 14.6679C21.4021 14.6801 22.525 14.3859 23.5729 13.7605C24.1718 13.3926 24.7956 13.3804 25.382 13.7605C27.8896 15.3668 32.1564 14.7537 34.4021 12.755C35.0509 12.1787 35.5125 11.4798 35.8493 10.695C36.0115 10.3149 36.2735 10.0819 36.7227 10.1923C37.1843 10.3026 37.3465 10.7318 37.1468 11.2223C36.7102 12.2768 36.0614 13.1719 35.1881 13.9199C35.001 14.0793 34.8388 14.3123 34.7639 14.5453C33.8033 17.4391 33.8781 20.3574 34.6267 23.2758C35.0384 24.8698 35.6248 26.3903 36.3983 27.8495C37.4837 29.8849 38.5067 31.9449 39.0557 34.1889C39.904 37.659 39.8167 41.0801 38.7687 44.5134C38.1824 46.4385 37.7207 48.4127 37.2092 50.3624C37.0845 50.8528 36.8848 51.0122 36.2486 51.0122C31.3704 51.0122 26.5048 51.0122 21.6267 51.0122C18.6324 51.0122 15.6507 51.0122 12.6564 51.0122C12.0576 51.0122 11.8704 50.8528 11.7332 50.3256C11.2217 48.3391 10.7351 46.3527 10.1612 44.3785C8.60173 39.0569 9.28791 33.9682 11.833 29.0879C12.881 27.077 13.8791 25.0415 14.428 22.8221C15.1017 20.0877 14.9395 17.3655 14.3656 14.6311C14.3282 14.4717 14.2534 14.2878 14.1411 14.2019C12.382 12.9267 11.5835 11.0874 11.1094 9.05192C10.785 7.65406 10.7601 6.23167 10.9098 4.80929C10.9472 4.44143 11.0969 4.17167 11.4213 4C20.167 4 28.9127 4 37.6708 4ZM12.7063 30.4612C17.2975 32.6684 21.0029 35.9423 24.4962 39.486C27.9645 35.9178 31.6574 32.7052 36.1862 30.5103C35.6123 29.3822 35.0633 28.2909 34.5394 27.2486C33.0921 27.5674 31.7323 27.9108 30.3474 28.1928C26.9789 28.8672 23.5979 29.0511 20.1919 28.4503C19.643 28.3522 19.381 28.0702 19.4559 27.641C19.5182 27.2241 19.88 27.0279 20.4165 27.0892C21.477 27.2118 22.5499 27.3467 23.6228 27.408C26.1555 27.5429 28.6507 27.1505 31.1209 26.6355C32.0691 26.4393 33.0048 26.1818 34.0029 25.9366C32.7054 22.3929 32.2438 18.8737 33.1046 15.2197C32.9799 15.2565 32.9175 15.281 32.8676 15.3055C30.1104 16.3232 27.3906 16.4704 24.7207 14.9867C24.6085 14.9254 24.3714 14.9376 24.2591 14.999C22.1756 16.1761 19.9549 16.2987 17.6593 15.7715C17.1104 15.6488 16.5739 15.4649 15.9376 15.281C16.6737 18.935 16.3244 22.4419 14.9645 25.8998C15.738 26.1083 16.4367 26.2922 17.1478 26.4884C17.5096 26.5865 17.7092 26.844 17.6718 27.1996C17.6344 27.5552 17.4098 27.7881 17.0355 27.8127C16.8733 27.8249 16.6987 27.7881 16.5365 27.7391C15.8503 27.5552 15.1641 27.359 14.4405 27.1628C13.8417 28.2418 13.2927 29.3331 12.7063 30.4612ZM12.1699 31.6752C11.309 33.8823 10.8474 36.0159 10.7726 38.2353C10.6977 40.2217 10.9971 42.1591 11.5585 44.072C12.095 45.899 12.5816 47.7506 13.0931 49.5899C16.6488 49.5899 20.2044 49.5899 23.7601 49.5899C23.7726 49.5163 23.7975 49.4795 23.7975 49.4305C23.7975 46.6347 23.81 43.8268 23.7975 41.031C23.7975 40.8716 23.6977 40.6754 23.5729 40.5528C21.0403 37.8675 18.2831 35.4151 15.1516 33.3918C14.2035 32.8033 13.2054 32.276 12.1699 31.6752ZM25.1948 49.5899C25.3196 49.6021 25.3944 49.6144 25.4693 49.6144C28.8503 49.6144 32.2188 49.6144 35.5998 49.6144C35.8493 49.6144 35.9367 49.5408 35.999 49.2956C36.3484 47.9222 36.6728 46.5366 37.1094 45.1756C38.0451 42.2695 38.5192 39.3266 38.0451 36.2734C37.8081 34.7284 37.3964 33.2324 36.7726 31.7978C36.6977 31.8101 36.6478 31.8101 36.6104 31.8346C36.286 31.994 35.9741 32.1411 35.6622 32.3128C31.7946 34.4341 28.5259 37.3034 25.5192 40.467C25.3445 40.6509 25.2198 40.9697 25.2198 41.2272C25.1948 43.839 25.2073 46.4508 25.2073 49.0749C25.1948 49.2465 25.1948 49.4182 25.1948 49.5899Z" fill="#E31E24"/>
    <path d="M38.6316 19.6462C39.7294 19.6217 40.715 19.4991 41.5884 18.935C42.2745 18.4936 42.5989 17.8315 42.6114 17.0344C42.6239 16.4704 42.836 16.1761 43.2726 16.1638C43.7218 16.1516 44.0212 16.4827 44.0087 17.0344C43.9962 18.371 43.4223 19.4255 42.2745 20.149C41.4511 20.6762 40.5154 20.8847 39.5423 20.9828C39.3801 20.995 39.2179 21.0073 38.9435 21.0318C39.1805 21.179 39.3053 21.2525 39.4175 21.3506C39.7045 21.5836 39.8168 21.8656 39.6296 22.1967C39.4425 22.5401 39.1056 22.6995 38.7688 22.5278C37.9703 22.1231 37.1843 21.694 36.4233 21.2158C36.074 20.995 36.0615 20.6149 36.311 20.2839C36.8101 19.6217 37.334 18.9718 37.8705 18.3342C38.1575 17.9909 38.5442 17.9663 38.8561 18.2116C39.1555 18.4568 39.2054 18.8369 38.9559 19.1925C38.8686 19.3274 38.7688 19.4623 38.6316 19.6462Z" fill="#E31E24"/>
    <path d="M10.3857 19.6708C10.2111 19.4255 10.0738 19.2784 9.97403 19.1067C9.77441 18.7634 9.82432 18.4568 10.1362 18.2116C10.4481 17.9664 10.7974 17.9909 11.0594 18.2852C11.6333 18.9473 12.1823 19.634 12.7063 20.3329C12.9683 20.6762 12.8435 21.0809 12.4568 21.3139C11.7581 21.7185 11.0594 22.1109 10.3483 22.491C9.96155 22.6995 9.5748 22.5768 9.37518 22.2458C9.17556 21.9147 9.28785 21.5591 9.66213 21.3016C9.76194 21.2403 9.84927 21.1667 9.99898 21.0809C9.38766 20.9828 8.83871 20.9215 8.30224 20.7989C6.41837 20.382 5.24562 19.1803 5.02105 17.4391C4.98363 17.1816 4.9961 16.9118 5.05848 16.6666C5.14581 16.2987 5.42029 16.1393 5.79457 16.1884C6.14389 16.2252 6.35599 16.4336 6.39341 16.7892C6.61798 18.6408 7.39149 19.3765 9.35023 19.6095C9.64965 19.634 9.96155 19.6462 10.3857 19.6708Z" fill="#E31E24"/>
    <path d="M24.4961 23.8398C24.3089 23.8398 24.1218 23.8643 23.9346 23.8398C23.5853 23.7908 23.3857 23.5823 23.3607 23.2267C23.3358 22.8589 23.5104 22.5891 23.8847 22.5278C24.2341 22.4787 24.5959 22.4787 24.9452 22.491C25.3819 22.5155 25.6439 22.8098 25.6189 23.2145C25.5815 23.6314 25.332 23.8276 24.9078 23.8521C24.783 23.8643 24.6333 23.8521 24.4961 23.8398C24.4961 23.8521 24.4961 23.8521 24.4961 23.8398Z" fill="#E31E24"/>
</svg>
