<svg width="18" height="11" viewBox="0 0 18 11" fill="none" xmlns="http://www.w3.org/2000/svg">
    <path d="M17.1212 10.0568H14.7348C14.7348 10.0568 14.2235 10.2273 13.5417 9.71591C12.6894 9.03409 11.8371 7.5 11.1553 7.67045C10.4735 7.84091 10.4735 9.375 10.4735 9.375C10.4735 9.375 10.4735 9.71591 10.303 9.88636C10.1326 10.0568 9.79167 10.0568 9.79167 10.0568H8.76894C8.76894 10.0568 6.38258 10.2273 4.33712 8.01136C2.12121 5.625 0.0757576 1.02273 0.0757576 1.02273C0.0757576 1.02273 -0.094697 0.681818 0.0757576 0.511363C0.246212 0.340908 0.587121 0.340908 0.587121 0.340908H3.14394C3.14394 0.340908 3.31439 0.340908 3.48485 0.511363C3.6553 0.681818 3.6553 0.852272 3.6553 0.852272C3.6553 0.852272 3.99621 1.875 4.67803 2.89773C5.70076 4.77273 6.21212 5.11364 6.55303 4.94318C7.06439 4.60227 6.89394 2.38636 6.89394 2.38636C6.89394 2.38636 6.89394 1.53409 6.55303 1.19318C6.55303 0.852272 6.21212 0.681818 6.04167 0.681818C5.87121 0.681818 6.21212 0.340909 6.38258 0.170454C6.89394 -5.21541e-07 7.57576 0 8.59848 0C9.2803 0 9.62121 -5.21541e-07 9.79167 0.170454C10.8144 0.340909 10.4735 1.02273 10.4735 3.06818C10.4735 3.75 10.303 4.60227 10.8144 4.94318C10.9848 5.11364 11.4962 4.94318 12.6894 2.89773C13.2008 1.875 13.7121 0.852272 13.7121 0.852272C13.7121 0.852272 13.8826 0.681818 13.8826 0.511363C14.053 0.340908 14.2235 0.511363 14.2235 0.511363H16.9508C16.9508 0.511363 17.803 0.340908 17.9735 0.852272C17.9735 1.02273 17.6326 1.875 16.4394 3.40909C14.5644 5.79545 14.3939 5.625 15.928 6.98863C17.2917 8.35227 17.6326 9.03409 17.6326 9.03409C18.3144 10.0568 17.1212 10.0568 17.1212 10.0568Z" fill="white"/>
</svg>
